<?xml version="1.0" encoding="utf-8"?>
<!-- Generator: Adobe Illustrator 16.0.0, SVG Export Plug-In . SVG Version: 6.00 Build 0)  -->
<!DOCTYPE svg PUBLIC "-//W3C//DTD SVG 1.0//EN" "http://www.w3.org/TR/2001/REC-SVG-20010904/DTD/svg10.dtd">
<svg version="1.0" id="Layer_1" xmlns="http://www.w3.org/2000/svg" xmlns:xlink="http://www.w3.org/1999/xlink" x="0px" y="0px"
	 width="960px" height="560px" viewBox="0 0 960 560" enable-background="new 0 0 960 560" xml:space="preserve">
<g>
	<path display="none" fill="#FFFFFF" d="M236.137,526.775c0-163.547,0-327.092,0-490.638c163.546,0,327.091,0,490.638,0
		c0,163.546,0,327.091,0,490.638C563.229,526.775,399.683,526.775,236.137,526.775z M481.112,428.768
		c5.198-7.796,10.064-14.915,14.712-22.172c1.406-2.195,2.875-3.104,5.584-3.08c17.145,0.147,34.291,0.074,51.438,0.074
		c1.235,0,2.472,0,4.885,0c-1.842-4.977-2.96-9.397-5.039-13.308c-3.457-6.501-9.039-11.21-14.965-15.444
		c-10.133-7.24-21.326-12.396-33.004-16.546c-1.735-0.616-2.738-1.147-2.533-3.325c0.863-9.17,1.541-18.355,2.279-27.537
		c2.017-25.103,4.035-50.205,6.045-75.308c1.256-15.689,2.547-31.376,3.697-47.074c0.201-2.744,1.125-3.687,3.976-3.762
		c8.507-0.222,17.005-0.817,25.507-1.247c42.511-2.153,85.022-4.279,127.531-6.47c6.4-0.33,11.662-3.144,15.547-8.261
		c10.18-13.407,1.834-31.442-15.576-33.68c-17.107-2.199-34.224-4.332-51.332-6.517c-33.986-4.34-67.967-8.736-101.966-12.968
		c-2.587-0.321-3.496-1.268-4.083-3.663c-1.939-7.915-4.143-15.764-6.242-23.64c-1.039-3.895-2.073-7.792-3.221-12.108
		c7.886,0,15.297,0,22.689,0c0-2.937,0-5.538,0-8.302c-10.044,0-19.834-0.122-29.618,0.076c-2.843,0.057-4.39-0.892-5.744-3.301
		c-3.28-5.834-6.831-11.517-10.563-17.745c-3.941,6.55-7.604,12.47-11.074,18.503c-1.064,1.85-2.257,2.546-4.405,2.518
		c-9.096-0.121-18.195-0.051-27.293-0.051c-1.106,0-2.212,0-3.233,0c0,3.078,0,5.602,0,8.449c7.588,0,14.985,0,22.716,0
		c-3.359,12.651-6.562,24.921-9.975,37.133c-0.249,0.889-1.957,1.796-3.086,1.948c-13.628,1.836-27.276,3.526-40.917,5.264
		c-24.855,3.165-49.712,6.312-74.563,9.514c-13.868,1.787-27.774,3.361-41.57,5.607c-10.382,1.691-17.299,11.411-16.529,21.919
		c0.756,10.322,9.273,18.706,19.694,19.304c8.615,0.495,17.234,0.923,25.853,1.357c38.785,1.958,77.569,3.903,116.353,5.865
		c4.751,0.24,9.497,0.556,14.543,0.856c4.167,52.013,8.317,103.805,12.471,155.649c-1.56,0.569-2.869,1.041-4.174,1.524
		c-11.072,4.106-21.709,9.074-31.363,15.96c-5.931,4.23-11.3,9.041-15.076,15.375c-2.4,4.025-3.997,8.316-3.834,13.434
		c1.447,0,2.71,0,3.973,0c17.03,0,34.06,0.062,51.088-0.064c2.643-0.02,4.195,0.73,5.632,2.99
		C471.017,413.857,475.95,421.032,481.112,428.768z M435.093,479.229c3.468-0.883,7.487-0.79,9.344-2.748
		c1.365-1.438,0.944-6.484-0.598-8.234c-1.589-1.805-5.498-1.569-8.747-2.307C435.093,470.561,435.093,474.236,435.093,479.229z
		 M314.739,496.549c0.332,0.076,0.664,0.152,0.996,0.23c1.896-2.115,0.003-5.383,1.267-7.906c5.313,7.453,5.313,7.453,7.029,7.578
		c0-3.859,0-7.715,0-12.512c-3.003,2.882-0.822,6.075-2.104,8.416c-2.889-2.031-2.797-6.865-7.188-7.607
		C314.739,488.961,314.739,492.754,314.739,496.549z M480.399,478.352c0.575,0.054,1.149,0.108,1.725,0.162
		c0.108-1.606,0.007-3.267,0.399-4.801c0.258-1.008,1.229-1.836,1.88-2.744c0.533,0.88,1.345,1.705,1.536,2.653
		c0.318,1.573,0.238,3.228,0.35,5.312c2.184-2.24,2.37-7.584,0.705-8.832c-0.595-0.445-1.506-0.668-2.268-0.654
		c-3.219,0.052-6.436,0.232-9.623,0.363c0,2.719,0,5.645,0,8.57c1.072-0.293,1.612-0.817,1.684-1.4
		c0.156-1.266-0.155-2.621,0.166-3.822c0.221-0.83,1.178-1.465,1.806-2.188c0.547,0.741,1.451,1.43,1.567,2.232
		C480.568,474.887,480.399,476.632,480.399,478.352z M305.419,496.562c3.138-1.52,1.832-4.084,1.885-6.154
		c0.023-0.895-1.341-1.856-2.151-2.717c-0.172-0.184-0.67-0.078-1.019-0.078c-3.219-0.004-6.438-0.002-9.601-0.002
		c0,3.127,0,6.049,0,8.971c1.076-0.305,1.606-0.835,1.677-1.42c0.154-1.266-0.157-2.621,0.165-3.822
		c0.222-0.826,1.188-1.453,1.821-2.169c0.542,0.745,1.435,1.438,1.552,2.245c0.242,1.681,0.073,3.42,0.073,5.135
		c0.319,0.104,0.637,0.207,0.956,0.311c0.359-0.611,0.931-1.191,1.032-1.842c0.176-1.141-0.186-2.403,0.148-3.468
		c0.283-0.903,1.229-1.597,1.882-2.384c0.526,0.768,1.39,1.487,1.508,2.313C305.587,493.145,305.419,494.866,305.419,496.562z
		 M402.204,469.01c-3.569,1.125-2.392,4.574-4.201,6.118c-0.374-1.521-0.642-2.989-1.125-4.384
		c-0.184-0.528-0.843-1.186-1.331-1.225c-0.396-0.031-1.05,0.695-1.256,1.219c-0.509,1.287-0.825,2.65-1.341,4.396
		c-1.48-2.164-0.658-5.018-4.045-6.162c0.875,2.997,1.398,5.129,2.145,7.182c0.31,0.854,1.095,1.533,1.664,2.293
		c0.578-0.852,1.263-1.651,1.701-2.569c0.424-0.89,0.594-1.901,1.104-3.635c0.505,1.808,0.688,2.944,1.146,3.955
		c0.375,0.827,1.078,1.504,1.636,2.248c0.558-0.767,1.312-1.459,1.636-2.315C400.712,474.077,401.286,471.947,402.204,469.01z
		 M490.07,471.896c1.943-0.201,3.691-0.382,5.439-0.562c0.072,0.455,0.143,0.911,0.213,1.367c-1.31,0.282-2.75,0.32-3.887,0.925
		c-0.943,0.502-1.529,1.675-2.273,2.55c0.897,0.756,1.73,2.043,2.704,2.16c2.023,0.242,4.122-0.134,6.013-0.245
		c-0.158-1.756-0.433-3.333-0.407-4.906c0.034-2.048-0.696-3.443-2.792-3.694C493.029,469.245,490.955,469.24,490.07,471.896z
		 M465.972,478.111c-0.121-2.045,0.145-4.096-0.479-5.826c-0.428-1.189-1.961-2.443-3.229-2.768
		c-2.327-0.594-3.395,0.334-3.981,2.437c1.626-0.224,3.343-0.46,5.059-0.696c0.072,0.457,0.144,0.914,0.215,1.371
		c-1.173,0.283-2.473,0.341-3.486,0.91c-1.05,0.589-1.823,1.673-2.717,2.541c1.101,0.793,2.114,2.039,3.322,2.271
		C462.354,478.671,464.177,478.229,465.972,478.111z M408.745,471.19c0.043,0.511,0.085,1.021,0.127,1.532
		c-1.209,0.262-2.569,0.266-3.585,0.857c-1.014,0.592-1.681,1.775-2.5,2.699c1.042,0.729,2.018,1.916,3.144,2.082
		c1.8,0.267,3.701-0.145,5.52-0.268c-0.135-1.789,0.052-3.686-0.508-5.326c-0.433-1.271-1.603-2.767-2.794-3.201
		c-2.282-0.83-3.677,0.148-4.594,2.375C405.275,471.693,407.01,471.441,408.745,471.19z M305.852,471.271
		c0.066,0.465,0.133,0.93,0.199,1.395c-1.288,0.291-2.7,0.346-3.825,0.943c-0.955,0.508-1.578,1.641-2.349,2.496
		c0.993,0.785,1.909,2.078,2.994,2.24c1.898,0.284,3.9-0.127,5.615-0.232c-0.12-2.066,0.201-4.16-0.485-5.843
		c-0.504-1.237-2.207-2.396-3.593-2.759c-1.697-0.444-3.439,0.227-4.07,2.49C302.467,471.72,304.16,471.495,305.852,471.271z
		 M345.779,469.924c-0.563-1.332-1.021-2.412-1.478-3.492c-0.279,0.12-0.558,0.24-0.836,0.359c0,3.846,0,7.692,0,11.423
		c2.236,0,4.635,0.681,6.098-0.198c1.372-0.823,2.447-3.309,2.417-5.039C351.927,469.971,349.438,468.988,345.779,469.924z
		 M427.541,478.31c0-3.927,0-7.765,0-11.604c-0.332-0.08-0.663-0.159-0.995-0.238c-0.369,1.181-0.737,2.359-1.13,3.619
		c-0.167-0.039-0.5-0.225-0.787-0.168c-1.659,0.322-4.14,0.186-4.759,1.187c-0.85,1.375-0.858,3.896-0.136,5.403
		c0.505,1.055,2.802,1.381,4.365,1.751C425.205,478.52,426.423,478.31,427.541,478.31z M385.892,469.047
		c-2.458,0.745-4.924,0.771-5.871,1.983c-0.939,1.201-0.87,3.78-0.297,5.426c0.741,2.134,2.858,2.315,5.028,1.698
		c0.853-0.244,1.88,0.128,2.821,0.219c1.104-6.58,0.527-11.117-1.554-11.479C385.958,467.926,385.898,468.941,385.892,469.047z
		 M335.979,478.509c0-4.145,0-7.934,0-11.723c-0.371-0.11-0.742-0.221-1.113-0.331c-0.38,1.204-0.761,2.408-0.862,2.728
		c-2.221,0.599-4.691,0.548-5.691,1.735c-0.975,1.157-0.999,3.766-0.446,5.402c0.785,2.321,2.974,2.516,5.272,1.75
		C333.848,477.834,334.791,478.303,335.979,478.509z M368.677,466.814c0,4.003,0,7.76,0,11.219c3.092,0,5.917,0,8.741,0
		c-0.006-0.271-0.012-0.541-0.017-0.812c-2.218-0.142-4.437-0.284-6.667-0.426c0-1.396,0-2.581,0-3.721
		c2.189-0.181,4.105-0.339,6.021-0.497c-0.015-0.316-0.029-0.633-0.044-0.947c-1.984-0.146-3.969-0.292-6.061-0.445
		c0-1.039,0-1.907,0-2.873c2.378-0.201,4.59-0.391,6.802-0.579c-0.03-0.306-0.061-0.612-0.091-0.919
		C374.533,466.814,371.706,466.814,368.677,466.814z M282.981,474.65c-0.219-0.289-0.438-0.577-0.658-0.865
		c-1.329,1.026-2.512,2.488-4.016,2.988c-3.178,1.059-5.762-3.457-3.854-6.676c2.626-4.432,5.423-0.237,8.52,0.426
		c-1.232-3.79-3.733-4.207-6.481-3.787c-2.88,0.439-4.802,3.068-4.63,6.059c0.176,3.053,1.824,5.053,4.804,5.564
		C279.767,478.892,282.017,477.664,282.981,474.65z M364.532,492.099c6.018-0.569,7.687-1.586,7.228-4.313
		c-0.492-2.926-3.925-3.835-9.423-2.513c0,3.765,0,7.519,0,11.272c0.402,0.096,0.804,0.191,1.206,0.287
		C363.856,495.33,364.171,493.826,364.532,492.099z M325.794,474.392c0.072-3.153-1.269-4.69-3.803-4.942
		c-2.429-0.24-4.004,1.172-4.51,3.457c-0.533,2.404,0.241,4.488,2.74,5.302c2.258,0.735,4.196,0.147,5.495-2.427
		c-2.201-0.419-4.98,3.291-6.276-1.39C321.639,474.392,323.562,474.392,325.794,474.392z M298.438,474.211
		c0.236-3.068-1.26-4.59-3.949-4.764c-2.428-0.155-3.927,1.351-4.34,3.66c-0.437,2.443,0.437,4.438,2.971,5.161
		c2.25,0.644,4.032-0.056,5.48-2.761c-2.615,0.373-5.03,3.273-6.493-0.971C294.353,474.421,296.366,474.318,298.438,474.211z
		 M402.183,492.596c-0.132-3.267-1.496-4.913-4.238-4.947c-2.601-0.033-4.039,1.631-4.266,4.132c-0.228,2.518,0.919,4.27,3.492,4.81
		c2.27,0.475,3.655-0.457,4.214-2.695c-4.352,1.592-4.352,1.592-5.483-1.299C397.921,492.596,399.846,492.596,402.183,492.596z
		 M354.209,469.105c-0.375,0.214-0.749,0.428-1.124,0.641c0.735,2.028,1.255,4.17,2.257,6.054c1.331,2.502,0.75,4.223-2.01,5.551
		c3.885,0.759,7.782-5.749,6.883-12.278c-0.87,2.047-1.739,4.094-2.644,6.221C356.419,473.172,355.314,471.139,354.209,469.105z
		 M330.828,496.66c2.714,0.076,4.649-1.771,4.68-4.47c0.031-2.697-1.869-4.665-4.561-4.583c-2.73,0.084-4.292,1.555-4.484,4.293
		C326.272,494.61,328.135,496.584,330.828,496.66z M292.814,492.093c-0.02-2.689-1.964-4.614-4.66-4.482
		c-2.738,0.135-4.25,1.655-4.391,4.388c-0.14,2.709,1.767,4.643,4.467,4.666C290.942,496.688,292.835,494.801,292.814,492.093z
		 M352.771,496.723c0.615-0.082,1.229-0.164,1.844-0.246c-0.263-2.578,0.25-5.701-1.049-7.554c-0.945-1.347-4.285-1.015-6.539-1.427
		c0,3.277,0,6.182,0,9.086c0.441,0.05,0.881,0.1,1.322,0.148c0.137-1.441,0.079-2.939,0.472-4.309
		c0.334-1.162,1.192-2.172,1.817-3.25c0.582,1.048,1.393,2.035,1.688,3.159C352.696,493.736,352.642,495.254,352.771,496.723z
		 M506.039,478.523c0.617-0.07,1.232-0.14,1.85-0.209c-0.258-2.586,0.264-5.712-1.033-7.574c-0.939-1.35-4.287-1.023-6.557-1.443
		c0,3.266,0,6.174,0,9.084c0.441,0.051,0.883,0.102,1.324,0.152c0.141-1.436,0.087-2.927,0.479-4.289
		c0.334-1.164,1.18-2.182,1.8-3.266c0.588,1.041,1.411,2.019,1.705,3.135C505.977,475.524,505.914,477.049,506.039,478.523z
		 M451.492,478.463c2.697-0.072,4.563-2.038,4.38-4.748c-0.185-2.738-1.743-4.213-4.473-4.305c-2.69-0.091-4.597,1.873-4.573,4.57
		C446.849,476.68,448.781,478.535,451.492,478.463z M388.003,492.159c0.014-2.692-1.903-4.649-4.595-4.551
		c-2.733,0.1-4.279,1.587-4.454,4.323c-0.174,2.71,1.704,4.671,4.398,4.729C386.066,496.721,387.988,494.859,388.003,492.159z
		 M337.932,487.414c-0.377,0.107-0.755,0.213-1.132,0.319c0.229,2.55-0.337,5.667,0.945,7.469c0.994,1.396,4.299,1.146,6.544,1.622
		c0-3.342,0-6.251,0-9.16c-1.084,0.346-1.583,0.894-1.651,1.49c-0.146,1.268,0.159,2.621-0.164,3.82
		c-0.219,0.812-1.191,1.422-1.827,2.121c-0.557-0.736-1.413-1.404-1.602-2.226c-0.28-1.22,0.012-2.562-0.144-3.825
		C338.831,488.47,338.271,487.955,337.932,487.414z M411.741,493.799c-2.067,0.184-3.825,0.342-5.584,0.498
		c-0.101-1.309-0.501-3.686-0.254-3.754c1.762-0.496,3.657-0.52,5.771-0.719c-0.818-1.961-2.637-2.542-4.785-2.119
		c-2.375,0.466-3.844,2.281-3.315,4.516c0.38,1.609,1.788,3.572,3.242,4.192C409.035,497.359,411.025,496.193,411.741,493.799z
		 M413.367,488.352c0.244-0.005,0.487-0.01,0.731-0.016c0.194,1.771,0.436,3.539,0.573,5.315c0.226,2.897,0.789,3.267,3.984,2.462
		c-2.786-2.598-2.766-5.926-0.082-7.74c-0.931-1.062-1.844-2.104-2.926-3.34C414.872,486.162,414.119,487.257,413.367,488.352z
		 M468.593,469.225c0.28,2.648,0.499,4.552,0.68,6.459c0.258,2.729,1.207,3.214,3.992,2.002c-2.778-2.141-2.774-5.318-0.252-7.584
		c-0.928-1.104-1.807-2.148-2.817-3.352C469.386,468.002,468.713,469.041,468.593,469.225z M315.422,478.768
		c0.118-0.317,0.236-0.635,0.354-0.951c-2.787-2.351-2.768-5.688-0.111-7.708c-0.945-1.034-1.889-2.065-2.955-3.231
		c-3.369,3.312-0.226,6.982-0.496,10.395C312.181,477.684,314.3,478.266,315.422,478.768z M272.511,487.75
		c0.519,3.401,0.949,6.221,1.378,9.039c0.346-0.07,0.693-0.142,1.039-0.213c0.501-3.825,1.001-7.65,1.5-11.461
		C275.03,484.989,275.03,484.989,272.511,487.75z M389.556,500.385c0.805-0.791,2.146-1.498,2.448-2.514
		c1.078-3.621,0.012-9.483-1.612-10.141C390.125,491.765,389.86,495.775,389.556,500.385z M278.472,487.907c0,2.897,0,5.796,0,8.694
		c0.456,0.039,0.91,0.077,1.365,0.116c0.119-1.584-0.09-3.292,0.448-4.718c0.562-1.491,1.843-2.711,2.841-4.093
		C281.611,487.907,280.116,487.907,278.472,487.907z M378.12,487.91c-1.357,0-2.993,0-4.579,0c0,2.943,0,5.793,0,8.641
		c0.414,0.065,0.827,0.131,1.241,0.194c0.197-1.513,0.128-3.128,0.662-4.512C376.035,490.702,377.178,489.385,378.12,487.91z
		 M284.803,469.715c0,2.939,0,5.82,0,8.701c0.431,0.035,0.861,0.07,1.292,0.106c0.129-1.491-0.032-3.087,0.463-4.445
		c0.561-1.535,1.71-2.857,2.659-4.362C287.973,469.715,286.422,469.715,284.803,469.715z M419.124,470.5
		c-0.311-0.264-0.622-0.527-0.932-0.791c-1.593,0-3.186,0-4.639,0c0,2.898,0,5.799,0,8.7c0.338,0.11,0.675,0.222,1.014,0.332
		C416.423,476.174,413.175,470.906,419.124,470.5z"/>
	<path fill-rule="evenodd" clip-rule="evenodd" fill="#FCFCFC" d="M481.112,428.768c-5.163-7.735-10.096-14.91-14.767-22.252
		c-1.437-2.26-2.989-3.01-5.632-2.99c-17.029,0.127-34.059,0.064-51.088,0.064c-1.263,0-2.526,0-3.973,0
		c-0.163-5.117,1.434-9.408,3.834-13.434c3.776-6.334,9.146-11.145,15.076-15.375c9.654-6.886,20.291-11.854,31.363-15.96
		c1.305-0.483,2.615-0.955,4.174-1.524c-4.154-51.844-8.304-103.636-12.471-155.649c-5.046-0.3-9.792-0.616-14.543-0.856
		c-38.784-1.962-77.568-3.908-116.353-5.865c-8.619-0.435-17.238-0.862-25.853-1.357c-10.42-0.598-18.938-8.982-19.694-19.304
		c-0.77-10.508,6.147-20.229,16.529-21.919c13.795-2.247,27.702-3.821,41.57-5.607c24.851-3.202,49.708-6.349,74.563-9.514
		c13.642-1.738,27.289-3.428,40.917-5.264c1.13-0.152,2.838-1.059,3.086-1.948c3.413-12.211,6.616-24.481,9.975-37.133
		c-7.73,0-15.128,0-22.716,0c0-2.848,0-5.371,0-8.449c1.021,0,2.127,0,3.233,0c9.098,0,18.197-0.069,27.293,0.051
		c2.148,0.029,3.341-0.667,4.405-2.518c3.469-6.033,7.133-11.953,11.074-18.503c3.732,6.228,7.283,11.91,10.563,17.745
		c1.354,2.409,2.901,3.358,5.744,3.301c9.784-0.198,19.574-0.076,29.618-0.076c0,2.764,0,5.366,0,8.302c-7.393,0-14.804,0-22.689,0
		c1.147,4.316,2.182,8.213,3.221,12.108c2.1,7.876,4.303,15.725,6.242,23.64c0.587,2.395,1.496,3.341,4.083,3.663
		c33.999,4.232,67.979,8.627,101.966,12.968c17.108,2.185,34.225,4.318,51.332,6.517c17.41,2.238,25.756,20.273,15.576,33.68
		c-3.885,5.117-9.146,7.931-15.547,8.261c-42.509,2.191-85.021,4.317-127.531,6.47c-8.502,0.43-17,1.025-25.507,1.247
		c-2.851,0.075-3.774,1.018-3.976,3.762c-1.15,15.697-2.441,31.384-3.697,47.074c-2.01,25.103-4.028,50.205-6.045,75.308
		c-0.738,9.182-1.416,18.367-2.279,27.537c-0.205,2.178,0.798,2.709,2.533,3.325c11.678,4.149,22.871,9.306,33.004,16.546
		c5.926,4.234,11.508,8.943,14.965,15.444c2.079,3.91,3.197,8.331,5.039,13.308c-2.413,0-3.649,0-4.885,0
		c-17.146,0-34.293,0.073-51.438-0.074c-2.709-0.023-4.178,0.885-5.584,3.08C491.177,413.853,486.311,420.972,481.112,428.768z"/>
	<path display="none" fill-rule="evenodd" clip-rule="evenodd" d="M435.093,479.229c0-4.992,0-8.668,0-13.289
		c3.249,0.737,7.157,0.502,8.747,2.307c1.542,1.75,1.962,6.796,0.598,8.234C442.58,478.438,438.561,478.346,435.093,479.229z
		 M437.096,477.541c2.326-0.65,4.129-1.086,5.857-1.725c0.217-0.08,0.206-1.742,0.017-1.806c-1.83-0.599-3.72-1.015-5.874-1.552
		C437.096,474.35,437.096,475.455,437.096,477.541z M436.959,471.869c2.195-0.579,3.78-0.953,5.315-1.471
		c0.148-0.051,0.119-1.414-0.037-1.461c-1.562-0.459-3.167-0.77-5.062-1.188C437.1,469.205,437.054,470.07,436.959,471.869z"/>
	<path display="none" fill-rule="evenodd" clip-rule="evenodd" d="M314.739,496.549c0-3.795,0-7.588,0-11.801
		c4.391,0.742,4.299,5.576,7.188,7.607c1.282-2.341-0.899-5.534,2.104-8.416c0,4.797,0,8.652,0,12.512
		c-1.716-0.125-1.716-0.125-7.029-7.578c-1.264,2.523,0.63,5.791-1.267,7.906C315.403,496.701,315.071,496.625,314.739,496.549z"/>
	<path display="none" fill-rule="evenodd" clip-rule="evenodd" d="M480.399,478.352c0-1.72,0.169-3.465-0.074-5.148
		c-0.116-0.803-1.02-1.491-1.567-2.232c-0.628,0.723-1.585,1.357-1.806,2.188c-0.32,1.201-0.009,2.557-0.166,3.822
		c-0.072,0.583-0.612,1.107-1.684,1.4c0-2.926,0-5.852,0-8.57c3.188-0.131,6.404-0.312,9.623-0.363
		c0.762-0.014,1.673,0.209,2.268,0.654c1.665,1.248,1.479,6.592-0.705,8.832c-0.111-2.084-0.031-3.738-0.35-5.312
		c-0.191-0.948-1.003-1.773-1.536-2.653c-0.651,0.908-1.622,1.736-1.88,2.744c-0.393,1.534-0.291,3.194-0.399,4.801
		C481.549,478.46,480.975,478.405,480.399,478.352z"/>
	<path display="none" fill-rule="evenodd" clip-rule="evenodd" d="M305.419,496.562c0-1.696,0.167-3.418-0.071-5.081
		c-0.119-0.826-0.982-1.546-1.508-2.313c-0.653,0.787-1.6,1.48-1.882,2.384c-0.333,1.064,0.028,2.327-0.148,3.468
		c-0.101,0.65-0.673,1.23-1.032,1.842c-0.319-0.104-0.637-0.207-0.956-0.311c0-1.715,0.169-3.454-0.073-5.135
		c-0.117-0.807-1.01-1.5-1.552-2.245c-0.633,0.716-1.599,1.343-1.821,2.169c-0.322,1.201-0.011,2.557-0.165,3.822
		c-0.071,0.585-0.602,1.115-1.677,1.42c0-2.922,0-5.844,0-8.971c3.163,0,6.382-0.002,9.601,0.002c0.348,0,0.846-0.105,1.019,0.078
		c0.81,0.86,2.174,1.822,2.151,2.717C307.251,492.479,308.558,495.043,305.419,496.562z"/>
	<path display="none" fill-rule="evenodd" clip-rule="evenodd" d="M402.204,469.01c-0.918,2.938-1.492,5.067-2.269,7.121
		c-0.324,0.856-1.078,1.549-1.636,2.315c-0.558-0.744-1.261-1.421-1.636-2.248c-0.458-1.011-0.641-2.147-1.146-3.955
		c-0.51,1.733-0.679,2.745-1.104,3.635c-0.438,0.918-1.123,1.718-1.701,2.569c-0.569-0.76-1.354-1.439-1.664-2.293
		c-0.746-2.053-1.27-4.185-2.145-7.182c3.387,1.145,2.564,3.998,4.045,6.162c0.516-1.746,0.832-3.109,1.341-4.396
		c0.206-0.523,0.86-1.25,1.256-1.219c0.488,0.039,1.146,0.696,1.331,1.225c0.484,1.395,0.751,2.863,1.125,4.384
		C399.812,473.584,398.635,470.135,402.204,469.01z"/>
	<path display="none" fill-rule="evenodd" clip-rule="evenodd" d="M490.07,471.896c0.885-2.656,2.959-2.651,5.01-2.406
		c2.096,0.251,2.826,1.646,2.792,3.694c-0.025,1.573,0.249,3.15,0.407,4.906c-1.891,0.111-3.989,0.487-6.013,0.245
		c-0.974-0.117-1.807-1.404-2.704-2.16c0.744-0.875,1.33-2.048,2.273-2.55c1.137-0.604,2.577-0.643,3.887-0.925
		c-0.07-0.456-0.141-0.912-0.213-1.367C493.762,471.515,492.014,471.695,490.07,471.896z"/>
	<path display="none" fill-rule="evenodd" clip-rule="evenodd" d="M465.972,478.111c-1.795,0.118-3.618,0.56-5.296,0.239
		c-1.208-0.231-2.222-1.478-3.322-2.271c0.894-0.868,1.667-1.952,2.717-2.541c1.013-0.569,2.312-0.627,3.486-0.91
		c-0.072-0.457-0.144-0.914-0.215-1.371c-1.716,0.236-3.432,0.473-5.059,0.696c0.586-2.103,1.654-3.03,3.981-2.437
		c1.269,0.324,2.802,1.578,3.229,2.768C466.117,474.016,465.851,476.066,465.972,478.111z"/>
	<path display="none" fill-rule="evenodd" clip-rule="evenodd" d="M408.745,471.19c-1.735,0.251-3.47,0.503-5.19,0.751
		c0.917-2.227,2.312-3.205,4.594-2.375c1.191,0.435,2.361,1.93,2.794,3.201c0.56,1.641,0.373,3.537,0.508,5.326
		c-1.819,0.123-3.719,0.534-5.52,0.268c-1.126-0.166-2.101-1.354-3.144-2.082c0.819-0.924,1.486-2.107,2.5-2.699
		c1.016-0.592,2.376-0.596,3.585-0.857C408.83,472.212,408.788,471.701,408.745,471.19z"/>
	<path display="none" fill-rule="evenodd" clip-rule="evenodd" d="M305.852,471.271c-1.692,0.224-3.384,0.448-5.515,0.73
		c0.631-2.264,2.373-2.935,4.07-2.49c1.386,0.363,3.089,1.521,3.593,2.759c0.687,1.683,0.366,3.776,0.485,5.843
		c-1.715,0.105-3.717,0.517-5.615,0.232c-1.085-0.162-2.001-1.455-2.994-2.24c0.771-0.855,1.394-1.988,2.349-2.496
		c1.125-0.598,2.538-0.652,3.825-0.943C305.984,472.201,305.918,471.736,305.852,471.271z"/>
	<path display="none" fill-rule="evenodd" clip-rule="evenodd" d="M345.779,469.924c3.659-0.936,6.148,0.047,6.201,3.053
		c0.03,1.73-1.045,4.216-2.417,5.039c-1.463,0.879-3.862,0.198-6.098,0.198c0-3.73,0-7.577,0-11.423
		c0.279-0.119,0.558-0.239,0.836-0.359C344.758,467.512,345.216,468.592,345.779,469.924z M351.287,474.12
		c-1.61-1.424-2.603-2.302-3.595-3.179c-0.802,0.943-2.304,1.947-2.229,2.816c0.096,1.113,1.46,2.118,2.278,3.17
		C348.704,476.165,349.667,475.402,351.287,474.12z"/>
	<path display="none" fill-rule="evenodd" clip-rule="evenodd" d="M427.541,478.31c-1.118,0-2.336,0.21-3.441-0.051
		c-1.563-0.37-3.86-0.696-4.365-1.751c-0.722-1.507-0.714-4.028,0.136-5.403c0.619-1.001,3.1-0.864,4.759-1.187
		c0.287-0.057,0.62,0.129,0.787,0.168c0.393-1.26,0.761-2.438,1.13-3.619c0.332,0.079,0.664,0.158,0.995,0.238
		C427.541,470.545,427.541,474.383,427.541,478.31z M426.89,473.811c-1.605-1.312-2.557-2.092-3.509-2.871
		c-0.834,1.035-2.221,2.018-2.328,3.123c-0.084,0.874,1.406,1.898,2.198,2.856C424.253,476.062,425.255,475.206,426.89,473.811z"/>
	<path display="none" fill-rule="evenodd" clip-rule="evenodd" d="M385.892,469.047c0.006-0.105,0.066-1.121,0.127-2.152
		c2.081,0.361,2.658,4.898,1.554,11.479c-0.941-0.091-1.969-0.463-2.821-0.219c-2.17,0.617-4.287,0.436-5.028-1.698
		c-0.572-1.646-0.642-4.225,0.297-5.426C380.968,469.818,383.434,469.792,385.892,469.047z M387.008,473.941
		c-1.581-1.375-2.51-2.184-3.438-2.99c-0.864,1.004-2.287,1.941-2.417,3.03c-0.104,0.88,1.353,1.944,2.117,2.927
		C384.298,476.092,385.327,475.276,387.008,473.941z"/>
	<path display="none" fill-rule="evenodd" clip-rule="evenodd" d="M335.979,478.509c-1.188-0.206-2.131-0.675-2.84-0.438
		c-2.298,0.766-4.487,0.571-5.272-1.75c-0.553-1.637-0.529-4.245,0.446-5.402c1-1.188,3.47-1.137,5.691-1.735
		c0.102-0.319,0.482-1.523,0.862-2.728c0.371,0.11,0.742,0.221,1.113,0.331C335.979,470.575,335.979,474.364,335.979,478.509z
		 M335.194,473.754c-1.618-1.289-2.579-2.055-3.539-2.819c-0.822,1.05-2.193,2.052-2.289,3.165c-0.076,0.869,1.43,1.877,2.232,2.823
		C332.59,476.049,333.582,475.176,335.194,473.754z"/>
	<path display="none" fill-rule="evenodd" clip-rule="evenodd" d="M368.677,466.814c3.029,0,5.856,0,8.683,0
		c0.031,0.307,0.061,0.613,0.091,0.919c-2.212,0.188-4.424,0.378-6.802,0.579c0,0.966,0,1.834,0,2.873
		c2.092,0.153,4.077,0.299,6.061,0.445c0.015,0.314,0.029,0.631,0.044,0.947c-1.916,0.158-3.831,0.316-6.021,0.497
		c0,1.14,0,2.324,0,3.721c2.23,0.142,4.449,0.284,6.667,0.426c0.005,0.271,0.011,0.541,0.017,0.812c-2.825,0-5.649,0-8.741,0
		C368.677,474.574,368.677,470.817,368.677,466.814z"/>
	<path display="none" fill-rule="evenodd" clip-rule="evenodd" d="M282.981,474.65c-0.964,3.014-3.214,4.241-6.316,3.709
		c-2.98-0.512-4.628-2.512-4.804-5.564c-0.172-2.99,1.75-5.619,4.63-6.059c2.748-0.42,5.25-0.003,6.481,3.787
		c-3.096-0.663-5.893-4.857-8.52-0.426c-1.908,3.219,0.676,7.734,3.854,6.676c1.504-0.5,2.687-1.962,4.016-2.988
		C282.542,474.073,282.762,474.361,282.981,474.65z"/>
	<path display="none" fill-rule="evenodd" clip-rule="evenodd" d="M364.532,492.099c-0.361,1.728-0.676,3.231-0.99,4.733
		c-0.402-0.096-0.804-0.191-1.206-0.287c0-3.754,0-7.508,0-11.272c5.498-1.322,8.931-0.413,9.423,2.513
		C372.219,490.513,370.55,491.529,364.532,492.099z M364.321,490.888c2.041-0.616,3.636-0.998,5.116-1.646
		c0.231-0.101,0.135-1.957-0.147-2.057c-1.512-0.541-3.13-0.781-4.969-1.182C364.321,487.771,364.321,488.879,364.321,490.888z"/>
	<path display="none" fill-rule="evenodd" clip-rule="evenodd" d="M325.794,474.392c-2.232,0-4.155,0-6.354,0
		c1.296,4.681,4.075,0.971,6.276,1.39c-1.299,2.574-3.237,3.162-5.495,2.427c-2.499-0.813-3.272-2.897-2.74-5.302
		c0.506-2.285,2.082-3.697,4.51-3.457C324.526,469.701,325.867,471.238,325.794,474.392z"/>
	<path display="none" fill-rule="evenodd" clip-rule="evenodd" d="M298.438,474.211c-2.072,0.107-4.085,0.21-6.331,0.326
		c1.463,4.244,3.878,1.344,6.493,0.971c-1.449,2.705-3.231,3.404-5.48,2.761c-2.534-0.724-3.407-2.718-2.971-5.161
		c0.413-2.31,1.913-3.815,4.34-3.66C297.178,469.621,298.675,471.143,298.438,474.211z"/>
	<path display="none" fill-rule="evenodd" clip-rule="evenodd" d="M402.183,492.596c-2.337,0-4.262,0-6.281,0
		c1.131,2.891,1.131,2.891,5.483,1.299c-0.56,2.238-1.944,3.17-4.214,2.695c-2.573-0.54-3.72-2.292-3.492-4.81
		c0.228-2.501,1.666-4.165,4.266-4.132C400.688,487.683,402.051,489.329,402.183,492.596z"/>
	<path display="none" fill-rule="evenodd" clip-rule="evenodd" d="M354.209,469.105c1.105,2.033,2.21,4.066,3.363,6.188
		c0.905-2.127,1.774-4.174,2.644-6.221c0.899,6.529-2.999,13.037-6.883,12.278c2.76-1.328,3.341-3.049,2.01-5.551
		c-1.002-1.884-1.522-4.025-2.257-6.054C353.46,469.533,353.835,469.319,354.209,469.105z"/>
	<path display="none" fill-rule="evenodd" clip-rule="evenodd" d="M330.828,496.66c-2.692-0.076-4.556-2.05-4.365-4.76
		c0.193-2.738,1.754-4.209,4.484-4.293c2.692-0.082,4.592,1.886,4.561,4.583C335.477,494.889,333.542,496.736,330.828,496.66z
		 M334.593,491.996c-1.654-1.32-2.961-2.91-3.506-2.682c-1.086,0.454-2.316,1.857-2.416,2.965c-0.078,0.873,1.449,1.891,2.263,2.844
		C331.936,494.268,332.937,493.411,334.593,491.996z"/>
	<path display="none" fill-rule="evenodd" clip-rule="evenodd" d="M292.814,492.093c0.021,2.708-1.872,4.595-4.583,4.571
		c-2.701-0.023-4.607-1.957-4.467-4.666c0.142-2.732,1.653-4.253,4.391-4.388C290.85,487.479,292.794,489.403,292.814,492.093z
		 M291.897,492.264c-1.654-1.414-2.595-2.81-3.677-2.93c-0.701-0.078-2.322,1.773-2.244,2.645c0.1,1.11,1.328,2.514,2.415,2.971
		C288.934,495.178,290.243,493.586,291.897,492.264z"/>
	<path display="none" fill-rule="evenodd" clip-rule="evenodd" d="M352.771,496.723c-0.128-1.469-0.074-2.986-0.444-4.392
		c-0.295-1.124-1.105-2.111-1.688-3.159c-0.625,1.078-1.483,2.088-1.817,3.25c-0.394,1.369-0.335,2.867-0.472,4.309
		c-0.441-0.049-0.881-0.099-1.322-0.148c0-2.904,0-5.809,0-9.086c2.253,0.412,5.593,0.08,6.539,1.427
		c1.299,1.853,0.786,4.976,1.049,7.554C354,496.559,353.385,496.641,352.771,496.723z"/>
	<path display="none" fill-rule="evenodd" clip-rule="evenodd" d="M506.039,478.523c-0.125-1.475-0.062-2.999-0.433-4.41
		c-0.294-1.116-1.117-2.094-1.705-3.135c-0.62,1.084-1.466,2.102-1.8,3.266c-0.392,1.362-0.338,2.854-0.479,4.289
		c-0.441-0.051-0.883-0.102-1.324-0.152c0-2.91,0-5.818,0-9.084c2.27,0.42,5.617,0.094,6.557,1.443
		c1.297,1.862,0.775,4.988,1.033,7.574C507.271,478.384,506.656,478.453,506.039,478.523z"/>
	<path display="none" fill-rule="evenodd" clip-rule="evenodd" d="M451.492,478.463c-2.71,0.072-4.643-1.783-4.667-4.482
		c-0.024-2.697,1.883-4.661,4.573-4.57c2.73,0.092,4.289,1.566,4.473,4.305C456.055,476.425,454.188,478.391,451.492,478.463z
		 M451.36,469.561c-1.228,2.078-2.464,3.229-2.325,4.176c0.169,1.154,1.497,2.137,2.324,3.194c0.827-1.058,2.155-2.04,2.325-3.194
		C453.824,472.789,452.587,471.639,451.36,469.561z"/>
	<path display="none" fill-rule="evenodd" clip-rule="evenodd" d="M388.003,492.159c-0.015,2.7-1.938,4.562-4.65,4.502
		c-2.695-0.059-4.572-2.02-4.398-4.729c0.175-2.736,1.721-4.224,4.454-4.323C386.1,487.51,388.018,489.467,388.003,492.159z
		 M387.104,492.117c-1.709-1.346-2.715-2.727-3.774-2.77c-0.745-0.029-2.27,1.844-2.169,2.721c0.125,1.093,1.409,2.475,2.501,2.863
		C384.242,495.137,385.475,493.508,387.104,492.117z"/>
	<path display="none" fill-rule="evenodd" clip-rule="evenodd" d="M337.932,487.414c0.338,0.541,0.899,1.056,0.97,1.631
		c0.156,1.264-0.137,2.605,0.144,3.825c0.189,0.821,1.045,1.489,1.602,2.226c0.636-0.699,1.608-1.309,1.827-2.121
		c0.323-1.199,0.017-2.553,0.164-3.82c0.069-0.597,0.567-1.145,1.651-1.49c0,2.909,0,5.818,0,9.16
		c-2.246-0.476-5.55-0.227-6.544-1.622c-1.283-1.802-0.716-4.919-0.945-7.469C337.177,487.627,337.555,487.521,337.932,487.414z"/>
	<path display="none" fill-rule="evenodd" clip-rule="evenodd" d="M411.741,493.799c-0.716,2.395-2.706,3.561-4.926,2.614
		c-1.454-0.62-2.862-2.583-3.242-4.192c-0.528-2.234,0.941-4.05,3.315-4.516c2.148-0.423,3.967,0.158,4.785,2.119
		c-2.114,0.199-4.008,0.223-5.771,0.719c-0.248,0.068,0.153,2.445,0.254,3.754C407.917,494.141,409.674,493.982,411.741,493.799z"/>
	<path display="none" fill-rule="evenodd" clip-rule="evenodd" d="M413.367,488.352c0.752-1.095,1.504-2.189,2.281-3.318
		c1.082,1.236,1.996,2.277,2.926,3.34c-2.684,1.814-2.704,5.143,0.082,7.74c-3.195,0.805-3.759,0.436-3.984-2.462
		c-0.138-1.776-0.379-3.544-0.573-5.315C413.854,488.342,413.611,488.347,413.367,488.352z"/>
	<path display="none" fill-rule="evenodd" clip-rule="evenodd" d="M468.593,469.225c0.12-0.184,0.792-1.223,1.603-2.475
		c1.01,1.203,1.889,2.248,2.817,3.352c-2.522,2.266-2.526,5.443,0.252,7.584c-2.785,1.212-3.734,0.728-3.992-2.002
		C469.092,473.776,468.874,471.873,468.593,469.225z"/>
	<path display="none" fill-rule="evenodd" clip-rule="evenodd" d="M315.422,478.768c-1.122-0.502-3.241-1.084-3.208-1.496
		c0.271-3.412-2.873-7.083,0.496-10.395c1.066,1.166,2.01,2.197,2.955,3.231c-2.656,2.021-2.675,5.357,0.111,7.708
		C315.658,478.133,315.54,478.45,315.422,478.768z"/>
	<path display="none" fill-rule="evenodd" clip-rule="evenodd" d="M272.511,487.75c2.519-2.761,2.519-2.761,3.917-2.635
		c-0.499,3.811-0.999,7.636-1.5,11.461c-0.346,0.071-0.692,0.143-1.039,0.213C273.46,493.971,273.03,491.151,272.511,487.75z"/>
	<path display="none" fill-rule="evenodd" clip-rule="evenodd" d="M389.556,500.385c0.305-4.609,0.57-8.62,0.836-12.654
		c1.624,0.657,2.69,6.52,1.612,10.141C391.701,498.887,390.36,499.594,389.556,500.385z"/>
	<path display="none" fill-rule="evenodd" clip-rule="evenodd" d="M278.472,487.907c1.644,0,3.139,0,4.654,0
		c-0.998,1.382-2.279,2.602-2.841,4.093c-0.538,1.426-0.329,3.134-0.448,4.718c-0.455-0.039-0.91-0.077-1.365-0.116
		C278.472,493.703,278.472,490.805,278.472,487.907z"/>
	<path display="none" fill-rule="evenodd" clip-rule="evenodd" d="M378.12,487.91c-0.942,1.475-2.085,2.792-2.677,4.323
		c-0.534,1.384-0.465,2.999-0.662,4.512c-0.414-0.063-0.827-0.129-1.241-0.194c0-2.848,0-5.697,0-8.641
		C375.127,487.91,376.763,487.91,378.12,487.91z"/>
	<path display="none" fill-rule="evenodd" clip-rule="evenodd" d="M284.803,469.715c1.619,0,3.17,0,4.414,0
		c-0.949,1.505-2.099,2.827-2.659,4.362c-0.495,1.358-0.334,2.954-0.463,4.445c-0.43-0.036-0.861-0.071-1.292-0.106
		C284.803,475.535,284.803,472.654,284.803,469.715z"/>
	<path display="none" fill-rule="evenodd" clip-rule="evenodd" d="M419.124,470.5c-5.949,0.406-2.701,5.674-4.558,8.241
		c-0.338-0.11-0.676-0.222-1.014-0.332c0-2.901,0-5.802,0-8.7c1.454,0,3.046,0,4.639,0
		C418.502,469.973,418.813,470.236,419.124,470.5z"/>
	<path display="none" fill-rule="evenodd" clip-rule="evenodd" fill="#FFFFFF" d="M437.096,477.541c0-2.086,0-3.191,0-5.082
		c2.154,0.537,4.044,0.953,5.874,1.552c0.189,0.063,0.2,1.726-0.017,1.806C441.225,476.455,439.422,476.891,437.096,477.541z"/>
	<path display="none" fill-rule="evenodd" clip-rule="evenodd" fill="#FFFFFF" d="M436.959,471.869
		c0.095-1.799,0.14-2.664,0.217-4.12c1.895,0.419,3.5,0.729,5.062,1.188c0.155,0.047,0.185,1.41,0.037,1.461
		C440.739,470.916,439.154,471.29,436.959,471.869z"/>
	<path display="none" fill-rule="evenodd" clip-rule="evenodd" fill="#FFFFFF" d="M351.287,474.12
		c-1.62,1.282-2.583,2.045-3.546,2.808c-0.818-1.052-2.182-2.057-2.278-3.17c-0.075-0.869,1.427-1.873,2.229-2.816
		C348.684,471.818,349.676,472.696,351.287,474.12z"/>
	<path display="none" fill-rule="evenodd" clip-rule="evenodd" fill="#FFFFFF" d="M426.89,473.811
		c-1.634,1.396-2.637,2.252-3.639,3.108c-0.792-0.958-2.282-1.982-2.198-2.856c0.107-1.105,1.494-2.088,2.328-3.123
		C424.333,471.719,425.284,472.498,426.89,473.811z"/>
	<path display="none" fill-rule="evenodd" clip-rule="evenodd" fill="#FFFFFF" d="M387.008,473.941
		c-1.682,1.335-2.71,2.15-3.738,2.967c-0.764-0.982-2.221-2.047-2.117-2.927c0.13-1.089,1.553-2.026,2.417-3.03
		C384.499,471.758,385.427,472.566,387.008,473.941z"/>
	<path display="none" fill-rule="evenodd" clip-rule="evenodd" fill="#FFFFFF" d="M335.194,473.754
		c-1.612,1.422-2.604,2.295-3.595,3.169c-0.803-0.946-2.308-1.954-2.232-2.823c0.096-1.113,1.467-2.115,2.289-3.165
		C332.615,471.699,333.576,472.465,335.194,473.754z"/>
	<path display="none" fill-rule="evenodd" clip-rule="evenodd" fill="#FFFFFF" d="M364.321,490.888c0-2.009,0-3.116,0-4.884
		c1.839,0.4,3.457,0.641,4.969,1.182c0.282,0.1,0.378,1.956,0.147,2.057C367.958,489.89,366.362,490.271,364.321,490.888z"/>
	<path display="none" fill-rule="evenodd" clip-rule="evenodd" fill="#FFFFFF" d="M334.593,491.996
		c-1.656,1.415-2.657,2.271-3.658,3.127c-0.814-0.953-2.341-1.971-2.263-2.844c0.1-1.107,1.329-2.511,2.416-2.965
		C331.632,489.086,332.938,490.676,334.593,491.996z"/>
	<path display="none" fill-rule="evenodd" clip-rule="evenodd" fill="#FFFFFF" d="M291.897,492.264
		c-1.654,1.322-2.963,2.914-3.506,2.686c-1.087-0.457-2.315-1.86-2.415-2.971c-0.078-0.871,1.543-2.723,2.244-2.645
		C289.302,489.454,290.243,490.85,291.897,492.264z"/>
	<path display="none" fill-rule="evenodd" clip-rule="evenodd" fill="#FFFFFF" d="M451.36,469.561
		c1.227,2.078,2.464,3.229,2.324,4.176c-0.17,1.154-1.498,2.137-2.325,3.194c-0.827-1.058-2.155-2.04-2.324-3.194
		C448.896,472.789,450.132,471.639,451.36,469.561z"/>
	<path display="none" fill-rule="evenodd" clip-rule="evenodd" fill="#FFFFFF" d="M387.104,492.117
		c-1.629,1.391-2.861,3.02-3.442,2.814c-1.092-0.389-2.375-1.771-2.501-2.863c-0.101-0.877,1.424-2.75,2.169-2.721
		C384.388,489.391,385.394,490.771,387.104,492.117z"/>
</g>
</svg>
