<?xml version="1.1" encoding="utf-8"?>
<!-- Generator: Adobe Illustrator 16.0.0, SVG Export Plug-In . SVG Version: 6.00 Build 0)  -->
<!DOCTYPE svg PUBLIC "-//W3C//DTD SVG 1.0//EN" "http://www.w3.org/TR/2001/REC-SVG-20010904/DTD/svg10.dtd">
<svg version="1.1" id="Layer_1" xmlns="http://www.w3.org/2000/svg" xmlns:xlink="http://www.w3.org/1999/xlink" x="0px" y="0px"
	 width="960px" height="560px" viewBox="0 0 960 560" enable-background="new 0 0 960 560" xml:space="preserve">
<g>
	<path display="none" fill="#FEFEFE" d="M382.595,158.314c53.867,0,107.733,0.026,161.601-0.077
		c2.738-0.006,3.279,0.538,3.275,3.277c-0.094,79.733-0.094,159.466,0,239.2c0.004,2.738-0.536,3.282-3.275,3.277
		c-52.801-0.105-105.601-0.105-158.4,0c-2.74,0.005-3.28-0.539-3.277-3.277C382.613,319.914,382.595,239.114,382.595,158.314z"/>
	<path fill-rule="evenodd" clip-rule="evenodd" fill="#551FC9" d="M489.986,265.182c2.143,9.758,6.188,18.385,12.952,26.029
		c14.454,16.338,26.032,34.231,29.142,56.617c6.625,47.679-37.471,93.715-85.144,89.322c-27.476-2.531-47.641-16.88-64.685-36.994
		c-17.364-20.49-29.036-43.753-33.75-70.401c-0.919-5.195-0.335-6.177,4.896-4.384c14.012,4.8,25.133,13.73,35.458,23.857
		c8.362,8.201,16.238,16.912,24.809,24.881c9.644,8.966,20.502,16.377,33.702,18.929c16.454,3.181,28.285-4.609,37.475-17.403
		c9.088-12.648,8.818-25.797,1.326-39.013c-8.287-14.618-21.345-25.112-32.736-36.998c-14.56-15.192-29.145-30.31-42.723-46.432
		c-34.51-40.972-24.013-82.27,13.93-113.376c28.764-23.581,60.849-24.053,90.998-1.969c20.89,15.302,40.883,31.653,55.965,53.113
		c5.387,7.664,9.902,15.74,11.684,25.119c2.5,13.153-5.943,24.17-19.157,25.102c-2.771,0.195-4.493-1.094-6.269-2.753
		c-5.465-5.107-11.029-10.306-14.68-16.798c-8.031-14.291-19.794-24.926-32.275-35.019c-5.797-4.688-11.49-9.505-17.156-14.349
		c-12.128-10.366-26.287-11.492-39.832-3.087c-24.318,15.089-28.372,38.638-10.416,60.825c6.864,8.479,13.125,17.548,21.701,24.458
		c7.072,5.699,14.576,10.758,24.465,9.189c0.616,0.229,0.866,0.531,0.758,0.911C490.303,264.974,490.158,265.182,489.986,265.182z"
		/>
	<path fill-rule="evenodd" clip-rule="evenodd" fill="#ED7EC3" d="M489.986,265.182c-0.281-0.475-0.387-0.987-0.32-1.534
		c4.265-6.88-0.102-12.225-3.627-17.241c-5.546-7.888-13.246-13.773-20.618-19.869c-3.772-3.117-6.744-6.802-9.223-10.925
		c-1.987-3.305-2.694-6.842-1.629-10.705c4.244-15.409,25.409-22.25,37.462-11.892c6.469,5.561,12.053,11.997,17.418,18.673
		c12.861,16.001,28.312,29.505,43.037,43.702c1.711,1.65,3.516,3.356,4.699,5.376c19.648,33.547,33.803,68.93,33.33,108.529
		c-0.562,47.182-22.76,82.072-62.562,106.338c-20.768,12.661-43.257,20.938-67.527,22.545
		c-51.291,3.402-104.912-25.509-111.635-88.061c-0.166-1.541-0.44-3.07-0.984-6.81c10.384,7.719,19.311,14.461,28.35,21.047
		c16.627,12.117,33.684,23.577,53.984,28.659c29.734,7.447,57.203,1.585,81.806-16.183c18.21-13.148,30.188-31.383,37.492-52.489
		c7.313-21.137,5.82-41.871-4.366-61.907C532.521,297.747,513.361,279.442,489.986,265.182z"/>
	<path fill-rule="evenodd" clip-rule="evenodd" fill="#EA903D" d="M475.161,62.041c37.654,1.859,70.171,13.709,90.382,48.57
		c6.122,10.562,8.724,22.205,10.393,34.148c0.87,6.225-1.93,7.269-7.371,6.239c-9.447-1.788-16.548-7.272-22.627-14.116
		c-18.272-20.569-41.762-31.117-68.399-34.312c-27.162-3.258-50.187,7.384-69.886,25.311
		c-23.763,21.623-40.042,47.123-37.774,80.943c1.325,19.75,9.577,36.945,21.056,52.705c14.66,20.122,32.512,37.357,49.975,54.95
		c8.255,8.315,16.458,16.709,24.212,25.487c5.427,6.146,7.922,13.367,3.257,21.279c-4.088,6.938-12.055,9.689-21.686,7.891
		c-12.547-2.341-22.862-9.193-31.779-17.553c-41.62-39.019-72.088-85.189-81.944-142.041c-6.075-35.042,6.264-66.969,27.793-94.676
		C389.53,79.846,428.839,63.722,475.161,62.041z"/>
</g>
</svg>
