<?xml version="1.0" encoding="utf-8"?>
<!-- Generator: Adobe Illustrator 16.0.0, SVG Export Plug-In . SVG Version: 6.00 Build 0)  -->
<!DOCTYPE svg PUBLIC "-//W3C//DTD SVG 1.0//EN" "http://www.w3.org/TR/2001/REC-SVG-20010904/DTD/svg10.dtd">
<svg version="1.0" id="Layer_1" xmlns="http://www.w3.org/2000/svg" xmlns:xlink="http://www.w3.org/1999/xlink" x="0px" y="0px"
	 width="960px" height="560px" viewBox="0 0 960 560" enable-background="new 0 0 960 560" xml:space="preserve">
<g>
	<path display="none" fill="#FFFFFF" d="M216.637,546.212c0-176.524,0-353.05,0-529.575c176.525,0,353.05,0,529.575,0
		c0,176.525,0,353.05,0,529.575C569.688,546.212,393.163,546.212,216.637,546.212z M306.729,166.776
		c0.754,0.282,1.084,0.443,1.433,0.53c8.218,2.034,15.801,5.54,22.722,10.344c5.667,3.933,11.167,8.123,16.587,12.394
		c9.957,7.845,20.289,15.012,32.145,19.786c12.157,4.895,24.825,8.068,37.452,11.378c9.49,2.487,18.779,5.419,26.915,11.094
		c2.571,1.794,4.955,3.903,7.201,6.098c1.941,1.896,2.639,4.356,1.966,7.102c-1.223,4.984-2.649,9.933-3.584,14.971
		c-1.843,9.943-7.333,17.356-15.513,22.865c-5.23,3.521-10.668,6.752-16.128,9.916c-15.628,9.057-27.645,21.672-35.874,37.607
		c-15.759,30.521-17.908,62.4-7.986,95.116c4.217,13.906,11.175,26.315,21.915,36.376c6.97,6.527,15.407,10.702,23.854,14.824
		c36.314,17.711,73.969,22.316,113.26,11.703c20.66-5.58,38.665-15.549,52.946-31.584c23.642-26.543,32.72-58.023,30.34-93.05
		c-1.407-20.72-7.14-40.399-15.708-59.273c-4.023-8.861-9.126-17.001-16.759-23.192c-15.897-12.899-33.711-21.082-54.498-22.279
		c-7.816-0.45-15.635-1.628-23.336-3.083c-8.466-1.598-15.812-5.455-20.599-13.071c-3.613-5.749-4.982-12.191-5.566-18.824
		c-1.528-17.399,0.416-34.498,5.205-51.224c4.756-16.608,5.594-33.182,1.388-50.019c-2.631-10.526-5.23-21.084-7.174-31.75
		c-1.892-10.382-0.819-20.646,3.842-30.327c0.108-0.226,0.107-0.505,0.163-0.789c-5.856,3.001-11.546,6.041-17.344,8.858
		c-10.363,5.037-17.965,12.756-23.23,22.962c-3.229,6.26-6.625,12.442-10.174,18.525c-6.396,10.96-13.732,21.216-23.34,29.661
		c-9.286,8.163-19.696,14.303-32.145,15.729c-9.028,1.035-18.175,0.998-27.258,1.607c-5.12,0.344-10.326,0.543-15.299,1.667
		C325.331,161.509,316.256,164.221,306.729,166.776z"/>
	<path fill-rule="evenodd" clip-rule="evenodd" fill="#FFFFFF" d="M306.729,166.776c9.527-2.555,18.602-5.267,27.819-7.349
		c4.973-1.124,10.179-1.324,15.299-1.667c9.083-0.609,18.229-0.572,27.258-1.607c12.449-1.426,22.859-7.567,32.145-15.729
		c9.608-8.445,16.945-18.701,23.34-29.661c3.549-6.083,6.944-12.266,10.174-18.525c5.266-10.206,12.868-17.926,23.23-22.962
		c5.797-2.817,11.487-5.857,17.344-8.858c-0.056,0.283-0.055,0.562-0.163,0.789c-4.661,9.681-5.733,19.944-3.842,30.327
		c1.943,10.666,4.543,21.224,7.174,31.75c4.206,16.837,3.368,33.411-1.388,50.019c-4.789,16.726-6.732,33.824-5.205,51.224
		c0.583,6.633,1.953,13.076,5.566,18.824c4.786,7.617,12.133,11.473,20.599,13.071c7.701,1.454,15.52,2.632,23.336,3.083
		c20.787,1.197,38.601,9.38,54.498,22.279c7.633,6.191,12.735,14.331,16.759,23.192c8.568,18.874,14.301,38.554,15.708,59.273
		c2.38,35.026-6.698,66.507-30.34,93.05c-14.281,16.035-32.286,26.004-52.946,31.584c-39.291,10.613-76.946,6.008-113.26-11.703
		c-8.448-4.122-16.885-8.297-23.854-14.824c-10.74-10.061-17.697-22.47-21.915-36.376c-9.922-32.716-7.773-64.596,7.986-95.116
		c8.229-15.936,20.246-28.551,35.874-37.607c5.46-3.164,10.897-6.395,16.128-9.916c8.18-5.509,13.67-12.922,15.513-22.865
		c0.935-5.039,2.361-9.987,3.584-14.971c0.673-2.746-0.025-5.207-1.966-7.102c-2.246-2.194-4.63-4.304-7.201-6.098
		c-8.135-5.675-17.425-8.607-26.915-11.094c-12.626-3.31-25.294-6.484-37.452-11.378c-11.856-4.773-22.188-11.94-32.145-19.786
		c-5.42-4.271-10.92-8.461-16.587-12.394c-6.921-4.804-14.504-8.31-22.722-10.344C307.813,167.219,307.483,167.058,306.729,166.776z
		 M524.311,334.202c-6.967-9.253-16.566-13.421-27.322-15.607c0-2.037,0-3.77,0-5.478c-1.832,0-3.473,0-5.285,0
		c0,1.904,0,3.646,0,5.412c-0.523,0.088-0.879,0.153-1.234,0.208c-7.742,1.203-14.965,3.659-21.055,8.803
		c-9.15,7.729-9.913,21.087-1.309,29.421c6.057,5.863,12.962,10.635,21.522,12.222c1.711,0.316,2.216,0.948,2.203,2.685
		c-0.084,11.318-0.043,22.635-0.043,33.953c0,0.72,0,1.438,0,2.172c-10.893-0.508-18.388-6.334-24.527-14.637
		c-2.74,1.627-5.378,3.191-8.135,4.826c3.97,5.406,8.26,10.257,13.798,13.916c5.679,3.752,11.991,5.301,18.942,5.449
		c0,5.807,0,11.418,0,16.986c1.85,0,3.438,0,5.262,0c0-5.733,0-11.354,0-17.028c7.679-0.51,14.387-2.942,20.31-7.569
		c12.614-9.854,13.132-27.871,1.015-38.31c-3.648-3.142-7.722-5.591-12.339-7.069c-2.984-0.957-5.966-1.924-8.86-2.858
		c0-11.222,0-22.271,0-33.503c8.604,0.557,14.222,6.039,20.016,11.262C519.641,337.687,521.922,335.984,524.311,334.202z"/>
	<path display="none" fill-rule="evenodd" clip-rule="evenodd" fill="#FFFFFF" d="M524.311,334.202
		c-2.389,1.782-4.67,3.484-7.043,5.255c-5.794-5.223-11.412-10.705-20.016-11.262c0,11.232,0,22.281,0,33.503
		c2.895,0.935,5.876,1.901,8.86,2.858c4.617,1.479,8.69,3.928,12.339,7.069c12.117,10.438,11.6,28.456-1.015,38.31
		c-5.923,4.627-12.631,7.06-20.31,7.569c0,5.675,0,11.295,0,17.028c-1.823,0-3.412,0-5.262,0c0-5.568,0-11.18,0-16.986
		c-6.951-0.148-13.263-1.697-18.942-5.449c-5.538-3.659-9.829-8.51-13.798-13.916c2.756-1.635,5.395-3.199,8.135-4.826
		c6.14,8.303,13.635,14.129,24.527,14.637c0-0.734,0-1.452,0-2.172c0-11.318-0.041-22.635,0.043-33.953
		c0.013-1.736-0.492-2.368-2.203-2.685c-8.56-1.587-15.465-6.358-21.522-12.222c-8.604-8.334-7.841-21.691,1.309-29.421
		c6.09-5.144,13.313-7.6,21.055-8.803c0.355-0.055,0.711-0.12,1.234-0.208c0-1.766,0-3.508,0-5.412c1.812,0,3.453,0,5.285,0
		c0,1.708,0,3.44,0,5.478C507.744,320.781,517.344,324.949,524.311,334.202z M497.189,407.586c5.97,0.02,12.207-2.477,15.813-6.73
		c3.733-4.404,6.108-9.463,3.403-15.191c-3.773-7.986-10.27-12.315-19.217-12.91C497.189,384.418,497.189,396.002,497.189,407.586z
		 M491.61,358.548c0-10.151,0-20.283,0-30.483c-0.831,0.13-1.484,0.211-2.128,0.337c-6.35,1.241-12.121,3.458-15.965,9.122
		c-2.631,3.877-2.64,6.876-0.008,10.756C477.859,354.693,484.102,357.709,491.61,358.548z"/>
	<path fill-rule="evenodd" clip-rule="evenodd" fill="#FCFCFC" d="M497.189,407.586c0-11.584,0-23.168,0-34.832
		c8.947,0.595,15.443,4.924,19.217,12.91c2.705,5.729,0.33,10.787-3.403,15.191C509.396,405.109,503.159,407.605,497.189,407.586z"
		/>
	<path fill-rule="evenodd" clip-rule="evenodd" fill="#FCFCFC" d="M491.61,358.548c-7.509-0.839-13.751-3.854-18.102-10.269
		c-2.631-3.88-2.623-6.879,0.008-10.756c3.844-5.664,9.616-7.881,15.965-9.122c0.644-0.126,1.297-0.207,2.128-0.337
		C491.61,338.265,491.61,348.396,491.61,358.548z"/>
</g>
</svg>
