<?xml version="1.0" encoding="utf-8"?>
<!-- Generator: Adobe Illustrator 16.0.0, SVG Export Plug-In . SVG Version: 6.00 Build 0)  -->
<!DOCTYPE svg PUBLIC "-//W3C//DTD SVG 1.0//EN" "http://www.w3.org/TR/2001/REC-SVG-20010904/DTD/svg10.dtd">
<svg version="1.0" id="Layer_1" xmlns="http://www.w3.org/2000/svg" xmlns:xlink="http://www.w3.org/1999/xlink" x="0px" y="0px"
	 width="960px" height="560px" viewBox="0 0 960 560" enable-background="new 0 0 960 560" xml:space="preserve">
<g>
	<path display="none" fill="#FFFFFF" d="M260.137,537.775c0-163.547,0-327.092,0-490.638c163.545,0,327.091,0,490.638,0
		c0,163.546,0,327.091,0,490.638C587.229,537.775,423.684,537.775,260.137,537.775z M507.838,335.619
		c0.746-0.836,1.297-1.417,1.809-2.03c9.712-11.637,19.312-23.365,29.143-34.899c41.424-48.613,79.252-99.859,112.888-154.164
		c9.935-16.037,19.666-32.226,26.49-49.922c1.12-2.905,1.901-6.012,2.316-9.096c0.428-3.176-1.395-4.549-4.519-3.774
		c-1.568,0.389-3.183,0.893-4.562,1.707c-5.408,3.193-10.966,6.209-16.051,9.869c-28.939,20.827-54.984,45.041-80.785,69.531
		c-39.646,37.63-75.779,78.493-110.887,120.308c-2.31,2.75-4.659,5.468-7.144,8.381
		C472.579,307.531,489.578,322.014,507.838,335.619z M331.115,432.205c-0.209-0.062,0.543,0.229,1.322,0.379
		c18.126,3.468,36.394,5.768,54.869,5.579c18.644-0.19,37.042-2.227,54.151-10.377c19.909-9.486,31.374-24.77,31.415-47.458
		c0.002-1.274-0.715-2.942-1.668-3.771c-17.076-14.813-34.226-29.545-51.43-44.21c-0.872-0.741-2.523-1.22-3.6-0.956
		c-3.836,0.938-7.649,2.064-11.346,3.454c-15.899,5.973-27.02,16.505-30.328,33.66c-1.761,9.132-2.5,18.458-3.766,27.689
		c-1.697,12.388-6.412,23.156-18.347,28.711C345.422,428.148,337.793,429.967,331.115,432.205z M429.979,323.561
		c17.164,14.661,33.939,28.989,50.938,43.509c6.859-7.843,13.057-14.929,18.947-21.663c-17.254-14.808-34.351-29.478-51.616-44.294
		C442.559,308.104,436.617,315.404,429.979,323.561z M338.758,495.596c0,4.397,0,8.18,0,11.959c0.416,0.064,0.833,0.127,1.249,0.191
		c0.285-2.52,0.569-5.037,0.859-7.596c3.033,1.856,2.771,6.918,7.144,7.586c0-4.17,0-8.019,0-11.867
		c-0.344-0.055-0.688-0.111-1.032-0.168c-1.643,2.21,0.022,5.272-1.011,7.682C343.087,501.225,343.039,496.671,338.758,495.596z
		 M323.827,507.565c0.306,0.098,0.61,0.194,0.917,0.294c0.369-0.522,0.981-1.011,1.057-1.57c0.17-1.262-0.178-2.633,0.168-3.818
		c0.256-0.879,1.273-1.535,1.952-2.291c0.501,0.791,1.315,1.538,1.434,2.384c0.229,1.646,0.067,3.348,0.067,5.024
		c0.525,0.053,1.051,0.107,1.576,0.16c0.148-2.023,0.543-4.07,0.348-6.061c-0.102-1.039-1.178-2.027-1.944-2.931
		c-0.212-0.25-0.887-0.137-1.35-0.139c-3.2-0.01-6.401-0.006-9.478-0.006c0,3.178,0,6.083,0,9.939
		c0.958-1.217,1.552-1.634,1.62-2.124c0.16-1.145-0.188-2.408,0.152-3.469c0.33-1.027,1.263-1.861,1.931-2.781
		c0.516,0.886,1.329,1.724,1.482,2.668C324.01,504.383,323.827,505.99,323.827,507.565z M329.831,482.1
		c0.067,0.531,0.134,1.062,0.202,1.595c-1.299,0.283-2.727,0.325-3.855,0.929c-0.945,0.504-1.543,1.663-2.295,2.532
		c0.892,0.764,1.718,2.062,2.686,2.18c2.026,0.244,4.127-0.135,6.029-0.248c-0.154-1.734-0.429-3.311-0.402-4.881
		c0.036-2.042-0.673-3.453-2.771-3.712c-2.055-0.253-4.135-0.257-5.089,2.548C326.324,482.7,328.078,482.4,329.831,482.1z
		 M368.373,477.455c-0.342,0.133-0.683,0.267-1.023,0.4c0,3.795,0,7.588,0,11.536c1.977,0,3.908,0.268,5.732-0.064
		c2.462-0.447,3.297-2.493,3.058-4.733c-0.124-1.153-0.749-2.77-1.631-3.213c-1.456-0.729-3.303-0.679-4.94-0.949
		C369.218,479.559,368.795,478.508,368.373,477.455z M357.732,481.079c-0.162-0.036-0.49-0.21-0.774-0.155
		c-1.661,0.316-4.145,0.168-4.767,1.164c-0.855,1.373-0.873,3.896-0.156,5.405c0.502,1.056,2.796,1.396,4.357,1.771
		c1.105,0.266,2.324,0.052,3.469,0.052c0-3.925,0-7.765,0-11.604c-0.332-0.082-0.665-0.164-0.998-0.246
		C358.496,478.641,358.128,479.815,357.732,481.079z M307.203,481.57c-2.231-3.791-4.726-4.73-7.692-3.547
		c-2.692,1.075-4.17,3.897-3.56,6.797c0.604,2.873,3.099,4.84,6.082,4.621c2.608-0.189,4.517-1.281,4.901-5.14
		c-1.937,1.502-3.114,2.964-4.614,3.468c-3.18,1.069-5.775-3.434-3.873-6.661C301.07,476.66,303.868,480.842,307.203,481.57z
		 M472.779,481.496c-1.514-3.405-3.896-4.547-6.835-3.697c-2.898,0.838-4.669,3.724-4.158,6.775
		c0.507,3.031,3.105,5.069,6.225,4.885c2.824-0.168,4.193-1.524,4.435-4.888c-2.53,1.398-4.543,5.843-7.612,1.943
		c-0.926-1.174-1.159-3.751-0.522-5.143C466.578,476.414,469.749,480.906,472.779,481.496z M388.529,503.016
		c2.902-0.554,7.262,1.058,7.186-4.122c-0.043-2.945-3.398-3.819-9.262-2.71c0,3.817,0,7.613,0,11.408
		c0.365,0.061,0.731,0.119,1.098,0.179C387.85,506.319,388.148,504.867,388.529,503.016z M535.322,485.432
		c-0.008-3.09-1.234-4.706-3.797-4.979c-2.431-0.261-4.388,1.147-4.433,3.393c-0.035,1.729,0.976,4.145,2.33,5.078
		c2.051,1.415,4.327,0.568,5.851-2.34c-2.279-0.083-5.019,3.455-6.358-1.15C531.082,485.432,532.996,485.432,535.322,485.432z
		 M511.332,486.87c-5.158,0.737-5.158,0.737-6.021-1.378c2.071-0.09,4.078-0.178,6.146-0.271c0.116-2.971-1.235-4.5-3.761-4.771
		c-2.429-0.259-4.379,1.175-4.406,3.422c-0.022,1.728,1.003,4.132,2.364,5.062C507.697,490.332,509.957,489.471,511.332,486.87z
		 M449.814,485.221c0.261-2.92-1.128-4.43-3.625-4.76c-2.418-0.318-4.4,1.08-4.47,3.332c-0.053,1.729,0.922,4.162,2.267,5.105
		c2.059,1.442,4.366,0.629,5.724-1.957c-5.163,0.446-5.163,0.446-6.062-1.42C445.754,485.418,447.764,485.32,449.814,485.221z
		 M410.05,485.344c-0.065-3.143-1.388-4.721-3.936-4.895c-2.599-0.181-4.135,1.384-4.51,3.867c-0.349,2.308,0.531,4.196,2.874,4.918
		c2.279,0.698,4.11,0.008,5.524-2.443c-2.34-0.408-5.128,3.318-6.331-1.447C405.873,485.344,407.808,485.344,410.05,485.344z
		 M350,486.317c-2.68,0.513-5.311,3.585-6.525-1.028c2.265,0,4.209,0,6.21,0c0.376-2.961-1.052-4.442-3.509-4.818
		c-2.405-0.367-4.42,0.992-4.521,3.254c-0.077,1.73,0.852,4.185,2.179,5.144C345.902,490.359,348.228,489.532,350,486.317z
		 M322.558,485.294c0.026-2.82-1.129-4.495-3.663-4.825c-2.583-0.339-4.243,1.115-4.732,3.58c-0.482,2.428,0.377,4.445,2.9,5.203
		c2.264,0.682,4.058-0.039,5.487-2.543c-2.448-0.188-5.203,3.387-6.341-1.415C318.429,485.294,320.375,485.294,322.558,485.294z
		 M426.086,504.909c-2.395-0.198-5.157,3.396-6.291-1.415c2.216,0,4.161,0,6.171,0c0.398-2.959-1.075-4.761-3.468-4.695
		c-1.559,0.043-3.672,1.447-4.459,2.846c-1.157,2.057-0.431,4.422,1.975,5.525C422.414,508.272,424.496,507.736,426.086,504.909z
		 M381.508,486.466c-2.76-5.73-2.76-5.73-4.325-5.56c3.026,9.116,3.026,9.116,0.682,11.514c3.359,0.737,7.142-5.525,7.198-11.918
		c-0.291-0.142-0.582-0.283-0.873-0.424C383.332,482.122,382.473,484.166,381.508,486.466z M483.395,484.964
		c0.017-2.691-1.899-4.648-4.592-4.554c-2.733,0.099-4.278,1.585-4.457,4.321c-0.176,2.71,1.701,4.673,4.396,4.731
		C481.454,489.525,483.379,487.664,483.395,484.964z M412.004,503.141c0.005-2.692-1.918-4.639-4.613-4.53
		c-2.734,0.107-4.27,1.604-4.438,4.34c-0.164,2.709,1.723,4.664,4.418,4.713C410.083,507.712,411.998,505.843,412.004,503.141z
		 M370.949,508.686c1.02-1.332,1.664-1.801,1.742-2.35c0.178-1.25-0.176-2.615,0.173-3.79c0.269-0.903,1.28-1.586,1.962-2.366
		c0.516,0.763,1.263,1.459,1.489,2.298c0.263,0.975-0.046,2.088,0.11,3.106c0.118,0.769,0.58,1.484,0.888,2.224
		c0.408-0.095,0.815-0.188,1.224-0.281c-0.208-2.552,0.379-5.657-0.885-7.474c-0.959-1.377-4.277-1.112-6.703-1.61
		C370.949,501.695,370.949,504.623,370.949,508.686z M421.73,490.238c0.723-1.125,1.288-1.632,1.362-2.201
		c0.162-1.256-0.189-2.627,0.176-3.789c0.277-0.881,1.343-1.514,2.057-2.256c0.48,0.791,1.217,1.534,1.387,2.389
		c0.243,1.228-0.04,2.553,0.141,3.802c0.079,0.54,0.757,0.994,1.161,1.486c0.32-0.12,0.642-0.241,0.961-0.36
		c-0.241-2.573,0.304-5.696-0.985-7.536c-0.951-1.359-4.293-1.046-6.854-1.529c0,2.904-0.016,5.44,0.018,7.978
		C421.154,488.621,421.37,489.02,421.73,490.238z M411.574,489.365c0.228,0.096,0.456,0.192,0.684,0.289
		c0.361-0.523,0.959-1.016,1.033-1.576c0.168-1.254-0.184-2.622,0.175-3.789c0.274-0.891,1.317-1.543,2.018-2.301
		c0.496,0.778,1.253,1.506,1.427,2.352c0.25,1.225-0.035,2.551,0.139,3.802c0.076,0.549,0.723,1.02,1.111,1.522
		c0.33-0.115,0.66-0.23,0.991-0.348c-0.226-2.564,0.341-5.685-0.938-7.511c-0.959-1.368-4.295-1.069-6.639-1.526
		C411.574,483.514,411.574,486.439,411.574,489.365z M359.506,503.017c-0.062-2.685-2.035-4.573-4.732-4.402
		c-2.744,0.174-4.215,1.733-4.317,4.461c-0.102,2.705,1.841,4.606,4.546,4.591C357.708,507.648,359.568,505.729,359.506,503.017z
		 M316.809,503.297c0.088-2.701-1.768-4.713-4.452-4.688c-2.727,0.024-4.333,1.446-4.585,4.186
		c-0.249,2.707,1.576,4.729,4.255,4.861C314.746,507.788,316.721,505.988,316.809,503.297z M368.38,498.701
		c-0.268-0.093-0.536-0.188-0.804-0.279c-0.327,0.631-0.854,1.236-0.939,1.898c-0.164,1.264,0.167,2.631-0.18,3.814
		c-0.227,0.774-1.287,1.305-1.974,1.941c-0.501-0.669-1.306-1.283-1.437-2.02c-0.243-1.356,0.02-2.801-0.16-4.178
		c-0.07-0.539-0.762-0.996-1.443-1.82c-1.595,8.541-0.843,9.441,6.937,9.187C368.38,504.392,368.38,501.546,368.38,498.701z
		 M496.515,487.825c2.021-2.542,3.717-4.671,5.635-7.082c-3.303,0-5.718,0-8.133,0c-0.018,0.275-0.033,0.552-0.052,0.829
		c1.351,0.166,2.701,0.333,4.418,0.545c-1.691,2.406-3.22,4.575-4.865,6.914c3.095,0,5.55,0,8.005,0
		c-0.003-0.285-0.006-0.57-0.009-0.855C500.072,488.074,498.631,487.974,496.515,487.825z M484.333,489.126c3.227,0,5.646,0,8.063,0
		c0.018-0.275,0.035-0.551,0.054-0.827c-1.542-0.188-3.083-0.38-4.96-0.61c1.969-2.439,3.646-4.517,5.544-6.866
		c-3.232,0-5.694,0-8.155,0c-0.002,0.248-0.004,0.496-0.006,0.745c1.369,0.187,2.738,0.373,4.41,0.602
		C487.582,484.558,486.088,486.66,484.333,489.126z M435.857,501.479c-1.082-2.868-3.115-3.271-5.332-2.668
		c-2.519,0.688-3.369,2.725-3.021,5.168c0.344,2.402,1.896,3.648,4.314,3.669c2.188,0.018,3.416-1.104,3.938-2.824
		c-2.108,0.17-3.883,0.469-5.604,0.285c-0.271-0.028-0.785-2.468-0.361-3.427C431.311,498.25,433.584,501.736,435.857,501.479z
		 M391.888,484.566c-0.244,3.231,0.803,4.927,3.073,4.743c1.495-0.12,3.898-1.397,4.119-2.51c0.582-2.934,0.197-6.06,0.197-9.107
		c-0.32-0.087-0.641-0.174-0.962-0.261c-0.308,0.643-0.845,1.271-0.883,1.927c-0.122,2.076,0.053,4.175-0.12,6.242
		c-0.064,0.773-0.771,1.493-1.186,2.236c-0.775-0.479-1.578-0.918-2.314-1.451C393.305,486.021,392.891,485.525,391.888,484.566z
		 M336.745,477.693c-0.844,1.312-1.519,2.359-2.192,3.407c0.855,1.788,1.061,3.693,1.242,5.603c0.26,2.731,1.24,3.219,3.991,1.963
		c-2.769-2.104-2.77-5.261-0.286-7.554C338.641,480.047,337.826,479.036,336.745,477.693z M437.365,499.351
		c0.241-0.021,0.481-0.044,0.725-0.066c0.197,1.79,0.441,3.576,0.582,5.37c0.227,2.896,0.791,3.267,3.982,2.456
		c-2.779-2.58-2.758-5.914-0.078-7.745c-0.922-1.044-1.849-2.092-2.941-3.329C438.861,497.164,438.113,498.258,437.365,499.351z
		 M515.223,477.693c-0.844,1.312-1.518,2.359-2.192,3.407c0.854,1.788,1.062,3.693,1.242,5.603c0.26,2.731,1.239,3.219,3.991,1.963
		c-2.768-2.104-2.77-5.261-0.285-7.554C517.118,480.047,516.305,479.036,515.223,477.693z M520.551,480.286
		c0.294,2.464,0.576,4.247,0.704,6.042c0.22,3.057,1.097,3.604,4.009,2.368c-2.788-2.161-2.779-5.354-0.237-7.596
		c-0.931-1.096-1.816-2.14-2.835-3.34C521.391,478.994,520.717,480.031,520.551,480.286z M439.665,477.738
		c-2.97-1.375-2.692,2.53-3.856,2.989c0.495,3.189,0.938,6.035,1.382,8.882c0.352-0.074,0.702-0.148,1.055-0.224
		C438.7,485.651,439.156,481.916,439.665,477.738z M297.941,507.807c0.328-0.082,0.656-0.164,0.984-0.246
		c0.509-3.824,1.018-7.649,1.541-11.584c-3.078-1.387-2.775,2.511-3.958,2.984C297.023,502.139,297.482,504.973,297.941,507.807z
		 M413.582,511.611c0.91-1.127,2.236-2.038,2.453-3.164c0.922-4.79,0.046-9.11-1.666-9.63
		C414.128,502.737,413.888,506.643,413.582,511.611z M451.426,489.351c0.409,0.067,0.818,0.135,1.228,0.199
		c0.204-1.509,0.146-3.118,0.682-4.498c0.594-1.529,1.728-2.853,2.671-4.337c-1.345,0-2.979,0-4.579,0
		C451.426,483.646,451.426,486.498,451.426,489.351z M397.465,507.931c2.949-1.185,1.257-3.437,1.958-4.825
		c0.747-1.481,1.853-2.78,2.827-4.197c-1.474,0-3.07,0-4.785,0C397.465,501.682,397.465,504.551,397.465,507.931z M308.628,489.344
		c0.4,0.07,0.8,0.142,1.2,0.212c0.217-1.499,0.167-3.107,0.723-4.468c0.646-1.578,1.825-2.938,2.76-4.373c-1.542,0-3.123,0-4.683,0
		C308.628,483.619,308.628,486.481,308.628,489.344z M302.371,498.908c0,2.802,0,5.725,0,9.098c2.756-1.197,1.207-3.424,1.862-4.812
		c0.708-1.504,1.78-2.834,2.723-4.285C305.641,498.908,304.065,498.908,302.371,498.908z M431.857,480.201c0,3.317,0,6.236,0,9.289
		C434.28,488.131,434.38,482.072,431.857,480.201z"/>
	<path fill="#FCFCFC" d="M507.838,335.619c-18.26-13.605-35.259-28.088-51.301-44.092c2.484-2.914,4.834-5.631,7.144-8.381
		c35.106-41.813,71.241-82.677,110.887-120.308c25.801-24.49,51.846-48.705,80.786-69.531c5.085-3.66,10.642-6.676,16.05-9.869
		c1.38-0.814,2.993-1.318,4.562-1.707c3.124-0.775,4.945,0.598,4.519,3.774c-0.415,3.084-1.196,6.191-2.316,9.096
		c-6.824,17.696-16.557,33.885-26.49,49.922c-33.636,54.304-71.464,105.55-112.888,154.163c-9.829,11.535-19.431,23.265-29.142,34.9
		C509.135,334.202,508.584,334.783,507.838,335.619z"/>
	<path fill="#FCFCFC" d="M331.115,432.205c6.678-2.238,14.307-4.057,21.274-7.298c11.935-5.555,16.649-16.323,18.347-28.711
		c1.266-9.231,2.005-18.559,3.766-27.689c3.309-17.155,14.429-27.688,30.328-33.66c3.696-1.39,7.51-2.516,11.346-3.454
		c1.076-0.264,2.728,0.215,3.6,0.956c17.205,14.665,34.354,29.396,51.43,44.21c0.953,0.827,1.67,2.495,1.668,3.771
		c-0.041,22.688-11.506,37.972-31.415,47.458c-17.108,8.15-35.508,10.187-54.151,10.377c-18.476,0.188-36.743-2.111-54.869-5.579
		C331.658,432.436,330.906,432.143,331.115,432.205z"/>
	<path fill="#FCFCFC" d="M429.979,323.561c6.64-8.155,12.58-15.457,18.27-22.448c17.267,14.816,34.362,29.486,51.616,44.294
		c-5.892,6.734-12.088,13.82-18.947,21.663C463.918,352.55,447.143,338.222,429.979,323.561z"/>
	<path display="none" d="M338.758,495.596c4.281,1.075,4.329,5.629,7.209,7.787c1.033-2.408-0.632-5.472,1.011-7.682
		c0.345,0.057,0.688,0.113,1.032,0.168c0,3.85,0,7.697,0,11.867c-4.373-0.668-4.11-5.729-7.144-7.586
		c-0.29,2.559-0.574,5.076-0.859,7.596c-0.416-0.064-0.833-0.127-1.249-0.191C338.758,503.774,338.758,499.993,338.758,495.596z"/>
	<path display="none" d="M323.827,507.565c0-1.575,0.183-3.184-0.067-4.719c-0.153-0.944-0.967-1.782-1.482-2.668
		c-0.668,0.92-1.601,1.754-1.931,2.781c-0.34,1.062,0.008,2.324-0.152,3.469c-0.068,0.49-0.662,0.907-1.62,2.124
		c0-3.856,0-6.763,0-9.939c3.077,0,6.277-0.004,9.478,0.006c0.463,0.002,1.138-0.111,1.35,0.139
		c0.767,0.902,1.843,1.892,1.944,2.931c0.195,1.989-0.199,4.036-0.348,6.061c-0.525-0.053-1.051-0.107-1.576-0.16
		c0-1.678,0.162-3.379-0.067-5.024c-0.118-0.846-0.933-1.593-1.434-2.384c-0.679,0.757-1.696,1.412-1.952,2.291
		c-0.346,1.187,0.002,2.558-0.168,3.818c-0.075,0.561-0.688,1.048-1.057,1.57C324.438,507.761,324.133,507.663,323.827,507.565z"/>
	<path display="none" d="M329.831,482.1c-1.753,0.302-3.507,0.602-5.496,0.941c0.954-2.805,3.034-2.801,5.089-2.548
		c2.099,0.259,2.808,1.67,2.771,3.712c-0.026,1.57,0.248,3.146,0.402,4.881c-1.902,0.113-4.003,0.492-6.029,0.248
		c-0.968-0.117-1.794-1.416-2.686-2.18c0.752-0.869,1.35-2.028,2.295-2.532c1.129-0.604,2.557-0.646,3.855-0.929
		C329.965,483.162,329.898,482.631,329.831,482.1z"/>
	<path display="none" d="M368.373,477.455c0.422,1.053,0.845,2.104,1.195,2.977c1.638,0.271,3.484,0.22,4.94,0.949
		c0.882,0.443,1.507,2.06,1.631,3.213c0.239,2.24-0.596,4.286-3.058,4.733c-1.824,0.332-3.756,0.064-5.732,0.064
		c0-3.948,0-7.741,0-11.536C367.69,477.722,368.031,477.588,368.373,477.455z M375.274,485.404
		c-1.527-1.548-2.463-2.496-3.397-3.443c-0.861,0.875-2.439,1.779-2.406,2.619c0.047,1.133,1.129,2.582,2.174,3.161
		C372.13,488.01,373.575,486.545,375.274,485.404z"/>
	<path display="none" d="M357.732,481.079c0.396-1.264,0.764-2.438,1.131-3.614c0.333,0.082,0.666,0.164,0.998,0.246
		c0,3.84,0,7.68,0,11.604c-1.145,0-2.363,0.214-3.469-0.052c-1.562-0.375-3.855-0.715-4.357-1.771
		c-0.717-1.511-0.699-4.032,0.156-5.405c0.622-0.996,3.105-0.848,4.767-1.164C357.242,480.869,357.57,481.043,357.732,481.079z
		 M359.215,484.941c-1.581-1.375-2.51-2.185-3.438-2.99c-0.864,1.004-2.287,1.94-2.416,3.03c-0.105,0.88,1.352,1.943,2.115,2.927
		C356.505,487.092,357.533,486.276,359.215,484.941z"/>
	<path display="none" d="M307.203,481.57c-3.335-0.729-6.133-4.91-8.755-0.462c-1.903,3.229,0.693,7.73,3.873,6.661
		c1.5-0.504,2.677-1.966,4.614-3.468c-0.384,3.857-2.293,4.949-4.901,5.14c-2.982,0.219-5.478-1.748-6.082-4.621
		c-0.61-2.898,0.868-5.722,3.56-6.797C302.477,476.84,304.972,477.779,307.203,481.57z"/>
	<path display="none" d="M472.779,481.496c-3.03-0.59-6.201-5.082-8.471-0.123c-0.637,1.392-0.402,3.969,0.522,5.143
		c3.069,3.898,5.082-0.545,7.612-1.943c-0.24,3.362-1.609,4.72-4.435,4.888c-3.118,0.187-5.718-1.854-6.225-4.885
		c-0.511-3.053,1.26-5.938,4.158-6.775C468.885,476.949,471.267,478.091,472.779,481.496z"/>
	<path display="none" d="M388.529,503.016c-0.381,1.853-0.68,3.305-0.979,4.756c-0.366-0.061-0.732-0.119-1.098-0.18
		c0-3.795,0-7.591,0-11.408c5.863-1.109,9.219-0.235,9.262,2.71C395.791,504.072,391.432,502.462,388.529,503.016z M388.32,501.891
		c2.045-0.618,3.641-1.004,5.119-1.65c0.23-0.102,0.131-1.957-0.152-2.059c-1.512-0.539-3.131-0.776-4.967-1.174
		C388.32,498.773,388.32,499.882,388.32,501.891z"/>
	<path display="none" d="M535.322,485.432c-2.326,0-4.24,0-6.407,0c1.341,4.605,4.079,1.067,6.358,1.15
		c-1.522,2.908-3.8,3.755-5.851,2.34c-1.354-0.935-2.365-3.35-2.33-5.078c0.045-2.244,2.002-3.652,4.433-3.393
		C534.088,480.726,535.314,482.342,535.322,485.432z"/>
	<path display="none" d="M511.332,486.87c-1.375,2.601-3.635,3.462-5.677,2.064c-1.361-0.93-2.388-3.334-2.364-5.062
		c0.027-2.247,1.979-3.681,4.406-3.422c2.524,0.271,3.877,1.8,3.761,4.771c-2.068,0.093-4.075,0.181-6.146,0.271
		C506.174,487.607,506.174,487.607,511.332,486.87z"/>
	<path display="none" d="M449.814,485.221c-2.052,0.101-4.062,0.197-6.168,0.302c0.899,1.866,0.899,1.866,6.062,1.42
		c-1.356,2.586-3.665,3.399-5.724,1.957c-1.345-0.943-2.318-3.377-2.267-5.105c0.068-2.252,2.051-3.65,4.469-3.332
		C448.688,480.791,450.075,482.301,449.814,485.221z"/>
	<path display="none" d="M410.05,485.344c-2.242,0-4.177,0-6.378,0c1.203,4.767,3.991,1.039,6.331,1.447
		c-1.414,2.451-3.245,3.143-5.524,2.443c-2.343-0.722-3.223-2.61-2.874-4.918c0.375-2.483,1.911-4.048,4.51-3.867
		C408.662,480.623,409.984,482.201,410.05,485.344z"/>
	<path display="none" d="M350,486.317c-1.772,3.215-4.098,4.042-6.166,2.55c-1.327-0.959-2.256-3.412-2.179-5.144
		c0.101-2.262,2.115-3.621,4.521-3.254c2.457,0.376,3.885,1.857,3.509,4.818c-2.001,0-3.945,0-6.21,0
		C344.689,489.902,347.32,486.83,350,486.317z"/>
	<path display="none" d="M322.558,485.294c-2.182,0-4.128,0-6.35,0c1.138,4.802,3.893,1.229,6.341,1.415
		c-1.429,2.504-3.223,3.225-5.487,2.543c-2.523-0.758-3.382-2.775-2.9-5.203c0.49-2.465,2.149-3.919,4.732-3.58
		C321.428,480.799,322.584,482.474,322.558,485.294z"/>
	<path display="none" d="M426.086,504.909c-1.59,2.827-3.672,3.363-6.072,2.261c-2.405-1.104-3.132-3.47-1.975-5.525
		c0.787-1.397,2.9-2.803,4.459-2.846c2.393-0.064,3.866,1.736,3.468,4.695c-2.01,0-3.955,0-6.171,0
		C420.929,508.305,423.691,504.711,426.086,504.909z"/>
	<path display="none" d="M381.508,486.466c0.965-2.3,1.824-4.344,2.682-6.388c0.291,0.141,0.582,0.282,0.873,0.424
		c-0.057,6.393-3.839,12.655-7.198,11.918c2.345-2.396,2.345-2.396-0.682-11.514C378.748,480.734,378.748,480.734,381.508,486.466z"
		/>
	<path display="none" d="M483.395,484.964c-0.016,2.7-1.939,4.562-4.653,4.5c-2.693-0.06-4.57-2.021-4.396-4.731
		c0.179-2.736,1.724-4.224,4.457-4.321C481.494,480.314,483.41,482.271,483.395,484.964z M478.301,488.295
		c0.421-0.011,0.842-0.021,1.265-0.031c0.592-1.182,1.709-2.406,1.614-3.53c-0.082-0.988-1.521-1.865-2.359-2.79
		c-0.813,1.066-2.126,2.066-2.282,3.225C476.408,486.112,477.66,487.245,478.301,488.295z"/>
	<path display="none" d="M412.004,503.141c-0.006,2.702-1.921,4.571-4.633,4.521c-2.695-0.049-4.582-2.004-4.418-4.713
		c0.168-2.734,1.703-4.231,4.438-4.34C410.086,498.502,412.009,500.447,412.004,503.141z M406.909,506.492
		c0.422-0.01,0.843-0.021,1.265-0.032c0.591-1.181,1.709-2.405,1.615-3.529c-0.083-0.988-1.521-1.865-2.36-2.79
		c-0.813,1.066-2.126,2.066-2.283,3.226C405.018,504.311,406.27,505.443,406.909,506.492z"/>
	<path display="none" d="M370.949,508.686c0-4.062,0-6.989,0-10.243c2.426,0.498,5.744,0.233,6.703,1.61
		c1.264,1.815,0.677,4.922,0.885,7.474c-0.408,0.094-0.815,0.188-1.224,0.281c-0.308-0.738-0.77-1.454-0.888-2.224
		c-0.156-1.02,0.152-2.133-0.11-3.105c-0.227-0.84-0.974-1.536-1.489-2.299c-0.682,0.78-1.693,1.463-1.962,2.366
		c-0.349,1.175,0.005,2.54-0.173,3.79C372.613,506.885,371.969,507.354,370.949,508.686z"/>
	<path display="none" d="M421.73,490.238c-0.36-1.22-0.576-1.617-0.58-2.02c-0.032-2.536-0.018-5.072-0.018-7.978
		c2.562,0.483,5.903,0.17,6.854,1.528c1.289,1.841,0.744,4.964,0.985,7.537c-0.319,0.119-0.641,0.24-0.961,0.36
		c-0.404-0.492-1.082-0.946-1.161-1.486c-0.181-1.249,0.104-2.575-0.141-3.802c-0.17-0.854-0.905-1.598-1.387-2.389
		c-0.714,0.742-1.778,1.375-2.057,2.256c-0.365,1.162-0.014,2.533-0.176,3.789C423.02,488.606,422.453,489.113,421.73,490.238z"/>
	<path display="none" d="M411.574,489.365c0-2.926,0-5.853,0-9.086c2.344,0.457,5.68,0.158,6.639,1.526
		c1.279,1.826,0.713,4.945,0.938,7.511c-0.331,0.116-0.661,0.231-0.991,0.348c-0.389-0.504-1.035-0.975-1.111-1.522
		c-0.174-1.251,0.111-2.577-0.139-3.802c-0.174-0.846-0.931-1.572-1.427-2.352c-0.7,0.758-1.743,1.41-2.018,2.301
		c-0.358,1.167-0.007,2.535-0.175,3.789c-0.074,0.562-0.672,1.053-1.033,1.576C412.03,489.559,411.802,489.461,411.574,489.365z"/>
	<path display="none" d="M359.506,503.017c0.062,2.714-1.798,4.633-4.504,4.648c-2.705,0.017-4.647-1.886-4.546-4.591
		c0.103-2.728,1.573-4.287,4.317-4.461C357.471,498.442,359.444,500.332,359.506,503.017z M358.6,503.038
		c-1.648-1.34-2.932-2.939-3.489-2.718c-1.088,0.434-2.333,1.831-2.44,2.934c-0.084,0.875,1.507,2.735,2.221,2.67
		C355.967,505.827,356.926,504.435,358.6,503.038z"/>
	<path display="none" d="M316.809,503.297c-0.088,2.691-2.063,4.491-4.781,4.359c-2.68-0.132-4.504-2.154-4.255-4.861
		c0.251-2.738,1.858-4.16,4.585-4.186C315.042,498.584,316.897,500.596,316.809,503.297z M311.449,506.416
		c0.421,0.031,0.843,0.062,1.264,0.094c0.68-1.016,1.979-2.096,1.883-3.031c-0.119-1.17-1.387-2.221-2.159-3.321
		c-0.876,0.881-2.358,1.689-2.472,2.66C309.833,503.943,310.902,505.211,311.449,506.416z"/>
	<path display="none" d="M368.38,498.701c0,2.845,0,5.689,0,8.545c-7.779,0.256-8.531-0.646-6.937-9.187
		c0.682,0.824,1.373,1.281,1.443,1.82c0.18,1.377-0.083,2.82,0.16,4.178c0.131,0.735,0.936,1.351,1.437,2.02
		c0.687-0.638,1.747-1.167,1.974-1.941c0.347-1.185,0.016-2.552,0.18-3.814c0.086-0.662,0.612-1.269,0.939-1.898
		C367.844,498.515,368.112,498.608,368.38,498.701z"/>
	<path display="none" d="M496.515,487.825c2.116,0.147,3.559,0.249,4.999,0.351c0.003,0.285,0.006,0.57,0.008,0.855
		c-2.454,0-4.909,0-8.004,0c1.646-2.339,3.174-4.508,4.865-6.914c-1.717-0.212-3.067-0.379-4.418-0.545
		c0.019-0.277,0.034-0.554,0.052-0.829c2.415,0,4.83,0,8.133,0C500.23,483.154,498.536,485.283,496.515,487.825z"/>
	<path display="none" d="M484.333,489.126c1.755-2.466,3.249-4.568,4.95-6.958c-1.672-0.229-3.041-0.415-4.41-0.602
		c0.002-0.249,0.004-0.497,0.006-0.745c2.461,0,4.923,0,8.155,0c-1.897,2.351-3.575,4.427-5.544,6.866
		c1.877,0.23,3.418,0.422,4.96,0.61c-0.019,0.276-0.036,0.552-0.054,0.827C489.979,489.126,487.56,489.126,484.333,489.126z"/>
	<path display="none" d="M435.857,501.479c-2.273,0.259-4.548-3.229-6.066,0.203c-0.424,0.959,0.092,3.397,0.361,3.427
		c1.723,0.184,3.496-0.115,5.604-0.285c-0.521,1.72-1.75,2.842-3.938,2.824c-2.418-0.021-3.972-1.267-4.314-3.669
		c-0.35-2.443,0.502-4.48,3.021-5.168C432.742,498.207,434.775,498.609,435.857,501.479z"/>
	<path display="none" d="M391.888,484.566c1.003,0.959,1.417,1.453,1.925,1.819c0.736,0.533,1.539,0.974,2.314,1.451
		c0.414-0.743,1.121-1.463,1.186-2.236c0.173-2.067-0.002-4.166,0.12-6.242c0.038-0.656,0.575-1.284,0.883-1.927
		c0.321,0.087,0.642,0.174,0.962,0.261c0,3.049,0.385,6.175-0.197,9.107c-0.221,1.111-2.624,2.39-4.119,2.51
		C392.69,489.493,391.644,487.799,391.888,484.566z"/>
	<path display="none" d="M336.745,477.693c1.081,1.343,1.896,2.354,2.755,3.419c-2.483,2.293-2.482,5.448,0.286,7.554
		c-2.751,1.256-3.731,0.77-3.991-1.963c-0.182-1.908-0.387-3.813-1.242-5.603C335.227,480.054,335.901,479.005,336.745,477.693z"/>
	<path display="none" d="M437.365,499.351c0.748-1.093,1.496-2.187,2.27-3.314c1.094,1.237,2.021,2.285,2.941,3.329
		c-2.68,1.831-2.701,5.165,0.078,7.745c-3.191,0.811-3.757,0.439-3.982-2.456c-0.141-1.794-0.385-3.58-0.582-5.37
		C437.848,499.307,437.606,499.328,437.365,499.351z"/>
	<path display="none" d="M515.223,477.693c1.082,1.343,1.896,2.354,2.756,3.419c-2.483,2.293-2.481,5.448,0.285,7.554
		c-2.752,1.256-3.731,0.77-3.991-1.963c-0.182-1.908-0.388-3.813-1.242-5.603C513.705,480.054,514.379,479.005,515.223,477.693z"/>
	<path display="none" d="M520.551,480.286c0.166-0.255,0.84-1.292,1.641-2.524c1.019,1.2,1.904,2.244,2.835,3.34
		c-2.542,2.242-2.55,5.435,0.237,7.596c-2.912,1.235-3.789,0.688-4.009-2.368C521.127,484.533,520.845,482.75,520.551,480.286z"/>
	<path display="none" d="M439.665,477.738c-0.509,4.178-0.965,7.913-1.421,11.647c-0.353,0.074-0.703,0.148-1.055,0.224
		c-0.443-2.847-0.887-5.691-1.382-8.882C436.973,480.27,436.695,476.363,439.665,477.738z"/>
	<path display="none" d="M297.941,507.807c-0.459-2.834-0.918-5.668-1.433-8.846c1.184-0.475,0.881-4.371,3.958-2.984
		c-0.523,3.935-1.032,7.76-1.541,11.584C298.597,507.643,298.269,507.725,297.941,507.807z"/>
	<path display="none" d="M413.582,511.611c0.306-4.97,0.546-8.874,0.787-12.794c1.712,0.52,2.588,4.84,1.666,9.63
		C415.818,509.573,414.492,510.484,413.582,511.611z"/>
	<path display="none" d="M451.426,489.351c0-2.853,0-5.703,0-8.636c1.6,0,3.234,0,4.579,0c-0.942,1.484-2.077,2.808-2.671,4.337
		c-0.534,1.38-0.478,2.989-0.682,4.498C452.244,489.484,451.835,489.418,451.426,489.351z"/>
	<path display="none" d="M397.465,507.931c0-3.38,0-6.249,0-9.022c1.715,0,3.312,0,4.785,0c-0.975,1.417-2.08,2.716-2.827,4.197
		C398.722,504.494,400.414,506.746,397.465,507.931z"/>
	<path display="none" d="M308.628,489.344c0-2.861,0-5.725,0-8.629c1.56,0,3.141,0,4.683,0c-0.935,1.437-2.114,2.795-2.76,4.373
		c-0.557,1.359-0.506,2.969-0.723,4.468C309.428,489.484,309.028,489.414,308.628,489.344z"/>
	<path display="none" d="M302.371,498.908c1.695,0,3.27,0,4.584,0c-0.943,1.451-2.015,2.781-2.723,4.285
		c-0.655,1.389,0.895,3.614-1.862,4.812C302.371,504.633,302.371,501.71,302.371,498.908z"/>
	<path display="none" d="M431.857,480.201c2.521,1.871,2.423,7.93,0,9.289C431.857,486.438,431.857,483.52,431.857,480.201z"/>
	<path display="none" fill="#FFFFFF" d="M375.274,485.404c-1.699,1.141-3.145,2.604-3.63,2.337
		c-1.045-0.579-2.127-2.028-2.174-3.161c-0.033-0.84,1.545-1.744,2.406-2.619C372.812,482.908,373.747,483.856,375.274,485.404z"/>
	<path display="none" fill="#FFFFFF" d="M359.215,484.941c-1.682,1.335-2.71,2.149-3.738,2.967
		c-0.764-0.982-2.221-2.047-2.115-2.927c0.129-1.09,1.552-2.026,2.416-3.03C356.705,482.758,357.634,483.566,359.215,484.941z"/>
	<path display="none" fill="#FFFFFF" d="M388.32,501.891c0-2.009,0-3.116,0-4.883c1.836,0.396,3.455,0.635,4.967,1.174
		c0.283,0.102,0.383,1.957,0.152,2.059C391.961,500.887,390.365,501.271,388.32,501.891z"/>
	<path display="none" fill="#FFFFFF" d="M478.301,488.295c-0.641-1.05-1.893-2.183-1.764-3.128c0.156-1.157,1.469-2.157,2.282-3.225
		c0.839,0.925,2.277,1.802,2.359,2.79c0.095,1.124-1.022,2.35-1.614,3.53C479.143,488.273,478.722,488.284,478.301,488.295z"/>
	<path display="none" fill="#FFFFFF" d="M406.909,506.492c-0.64-1.049-1.892-2.183-1.764-3.127c0.157-1.158,1.47-2.158,2.283-3.226
		c0.839,0.925,2.277,1.802,2.36,2.79c0.094,1.124-1.024,2.35-1.615,3.529C407.752,506.471,407.331,506.482,406.909,506.492z"/>
	<path display="none" fill="#FFFFFF" d="M358.6,503.038c-1.674,1.396-2.633,2.789-3.709,2.886c-0.714,0.065-2.305-1.795-2.221-2.67
		c0.107-1.103,1.353-2.5,2.44-2.934C355.668,500.099,356.951,501.698,358.6,503.038z"/>
	<path display="none" fill="#FFFFFF" d="M311.449,506.416c-0.547-1.205-1.616-2.473-1.484-3.6c0.113-0.971,1.595-1.779,2.472-2.66
		c0.772,1.102,2.04,2.151,2.159,3.321c0.096,0.937-1.203,2.017-1.883,3.031C312.292,506.479,311.871,506.447,311.449,506.416z"/>
</g>
</svg>
