<?xml version="1.0" encoding="utf-8"?>
<!-- Generator: Adobe Illustrator 16.0.0, SVG Export Plug-In . SVG Version: 6.00 Build 0)  -->
<!DOCTYPE svg PUBLIC "-//W3C//DTD SVG 1.0//EN" "http://www.w3.org/TR/2001/REC-SVG-20010904/DTD/svg10.dtd">
<svg version="1.0" id="Layer_1" xmlns="http://www.w3.org/2000/svg" xmlns:xlink="http://www.w3.org/1999/xlink" x="0px" y="0px"
	 width="960px" height="560px" viewBox="0 0 960 560" enable-background="new 0 0 960 560" xml:space="preserve">
<g>
	<path display="none" fill="#FFFFFF" d="M260.137,537.775c0-163.547,0-327.092,0-490.638c163.546,0,327.091,0,490.638,0
		c0,163.546,0,327.091,0,490.638C587.229,537.775,423.684,537.775,260.137,537.775z M507.838,335.619
		c0.746-0.836,1.297-1.417,1.809-2.03c9.711-11.637,19.312-23.365,29.142-34.9c41.424-48.613,79.252-99.859,112.888-154.163
		c9.934-16.037,19.666-32.226,26.49-49.922c1.12-2.905,1.901-6.012,2.316-9.096c0.428-3.176-1.394-4.549-4.518-3.774
		c-1.569,0.389-3.183,0.893-4.562,1.707c-5.408,3.193-10.965,6.209-16.05,9.869c-28.94,20.827-54.985,45.041-80.786,69.531
		c-39.645,37.63-75.779,78.493-110.886,120.307c-2.31,2.75-4.659,5.468-7.144,8.381
		C472.579,307.531,489.578,322.014,507.838,335.619z M331.115,432.205c-0.209-0.062,0.543,0.23,1.322,0.379
		c18.126,3.468,36.394,5.768,54.869,5.579c18.644-0.19,37.043-2.226,54.151-10.377c19.909-9.486,31.374-24.769,31.415-47.458
		c0.002-1.274-0.715-2.942-1.668-3.77c-17.076-14.814-34.225-29.545-51.43-44.21c-0.872-0.742-2.523-1.22-3.6-0.956
		c-3.836,0.938-7.649,2.064-11.346,3.454c-15.899,5.972-27.02,16.505-30.328,33.66c-1.761,9.132-2.5,18.458-3.766,27.689
		c-1.697,12.388-6.412,23.157-18.347,28.711C345.422,428.148,337.793,429.967,331.115,432.205z M429.979,323.561
		c17.164,14.661,33.939,28.989,50.938,43.508c6.859-7.842,13.057-14.928,18.947-21.663c-17.254-14.807-34.35-29.477-51.616-44.294
		C442.559,308.104,436.617,315.404,429.979,323.561z M338.758,495.596c0,4.397,0,8.179,0,11.959
		c0.416,0.064,0.833,0.127,1.249,0.191c0.285-2.519,0.569-5.037,0.859-7.596c3.033,1.857,2.771,6.918,7.144,7.586
		c0-4.17,0-8.018,0-11.867c-0.344-0.055-0.688-0.111-1.032-0.168c-1.643,2.21,0.022,5.273-1.011,7.682
		C343.087,501.225,343.039,496.671,338.758,495.596z M323.827,507.565c0.306,0.098,0.61,0.195,0.917,0.294
		c0.369-0.522,0.981-1.01,1.057-1.57c0.17-1.262-0.178-2.633,0.168-3.818c0.256-0.879,1.273-1.535,1.952-2.291
		c0.501,0.791,1.315,1.538,1.434,2.383c0.229,1.646,0.067,3.348,0.067,5.025c0.525,0.053,1.051,0.107,1.576,0.16
		c0.148-2.023,0.543-4.07,0.348-6.061c-0.102-1.039-1.178-2.027-1.944-2.93c-0.212-0.25-0.887-0.137-1.35-0.139
		c-3.2-0.01-6.401-0.006-9.478-0.006c0,3.178,0,6.083,0,9.94c0.958-1.217,1.552-1.634,1.62-2.124
		c0.16-1.145-0.188-2.408,0.152-3.469c0.33-1.027,1.263-1.861,1.931-2.781c0.516,0.885,1.329,1.723,1.482,2.668
		C324.01,504.383,323.827,505.99,323.827,507.565z M329.831,482.1c0.067,0.531,0.134,1.062,0.202,1.594
		c-1.299,0.284-2.727,0.326-3.855,0.929c-0.945,0.504-1.543,1.663-2.295,2.532c0.892,0.764,1.718,2.062,2.686,2.18
		c2.026,0.244,4.127-0.135,6.029-0.248c-0.154-1.734-0.429-3.311-0.402-4.881c0.036-2.042-0.673-3.453-2.771-3.712
		c-2.055-0.253-4.135-0.257-5.089,2.548C326.324,482.7,328.078,482.4,329.831,482.1z M368.373,477.455
		c-0.342,0.133-0.683,0.267-1.023,0.4c0,3.795,0,7.588,0,11.537c1.977,0,3.908,0.267,5.732-0.065
		c2.462-0.447,3.297-2.493,3.058-4.733c-0.124-1.154-0.749-2.77-1.631-3.213c-1.456-0.73-3.303-0.679-4.94-0.949
		C369.218,479.559,368.795,478.508,368.373,477.455z M357.732,481.079c-0.162-0.036-0.49-0.21-0.774-0.155
		c-1.661,0.316-4.145,0.168-4.767,1.164c-0.855,1.373-0.873,3.895-0.156,5.405c0.502,1.056,2.796,1.396,4.357,1.771
		c1.105,0.265,2.324,0.051,3.469,0.051c0-3.924,0-7.764,0-11.604c-0.332-0.082-0.665-0.164-0.998-0.246
		C358.496,478.641,358.128,479.815,357.732,481.079z M307.203,481.57c-2.231-3.791-4.726-4.73-7.692-3.547
		c-2.692,1.076-4.17,3.898-3.56,6.797c0.604,2.873,3.099,4.84,6.082,4.621c2.608-0.189,4.517-1.281,4.901-5.139
		c-1.937,1.502-3.114,2.964-4.614,3.468c-3.18,1.069-5.775-3.434-3.873-6.662C301.07,476.66,303.868,480.842,307.203,481.57z
		 M472.779,481.496c-1.513-3.405-3.895-4.547-6.835-3.697c-2.898,0.838-4.669,3.723-4.158,6.775c0.507,3.031,3.106,5.07,6.225,4.885
		c2.824-0.168,4.193-1.524,4.434-4.888c-2.53,1.399-4.543,5.843-7.612,1.944c-0.926-1.174-1.159-3.751-0.522-5.143
		C466.578,476.414,469.749,480.906,472.779,481.496z M388.529,503.016c2.902-0.554,7.262,1.057,7.186-4.122
		c-0.043-2.946-3.398-3.82-9.262-2.71c0,3.817,0,7.613,0,11.408c0.365,0.06,0.731,0.119,1.098,0.179
		C387.85,506.319,388.148,504.867,388.529,503.016z M535.322,485.432c-0.008-3.09-1.234-4.706-3.797-4.98
		c-2.43-0.261-4.387,1.148-4.432,3.393c-0.035,1.729,0.975,4.144,2.33,5.078c2.051,1.415,4.327,0.568,5.85-2.34
		c-2.279-0.083-5.018,3.455-6.358-1.15C531.082,485.432,532.996,485.432,535.322,485.432z M511.332,486.87
		c-5.158,0.737-5.158,0.737-6.021-1.378c2.071-0.09,4.078-0.178,6.146-0.27c0.116-2.971-1.235-4.5-3.761-4.771
		c-2.428-0.259-4.379,1.175-4.406,3.422c-0.022,1.728,1.003,4.132,2.364,5.062C507.697,490.332,509.957,489.471,511.332,486.87z
		 M449.814,485.221c0.261-2.92-1.127-4.43-3.625-4.76c-2.418-0.318-4.4,1.08-4.469,3.332c-0.053,1.729,0.922,4.162,2.266,5.105
		c2.059,1.443,4.367,0.629,5.724-1.957c-5.163,0.447-5.163,0.447-6.063-1.42C445.754,485.418,447.764,485.32,449.814,485.221z
		 M410.05,485.344c-0.065-3.143-1.388-4.721-3.936-4.895c-2.599-0.18-4.135,1.384-4.51,3.867c-0.349,2.308,0.531,4.197,2.874,4.918
		c2.279,0.699,4.11,0.008,5.524-2.443c-2.34-0.408-5.128,3.318-6.331-1.447C405.873,485.344,407.808,485.344,410.05,485.344z
		 M350,486.317c-2.68,0.513-5.311,3.585-6.525-1.028c2.265,0,4.209,0,6.21,0c0.376-2.961-1.052-4.442-3.509-4.818
		c-2.405-0.367-4.42,0.992-4.521,3.254c-0.077,1.73,0.852,4.184,2.179,5.143C345.902,490.359,348.228,489.532,350,486.317z
		 M322.558,485.294c0.026-2.82-1.129-4.495-3.663-4.825c-2.583-0.339-4.243,1.115-4.732,3.58c-0.482,2.428,0.377,4.445,2.9,5.203
		c2.264,0.682,4.058-0.039,5.487-2.543c-2.448-0.187-5.203,3.387-6.341-1.415C318.429,485.294,320.375,485.294,322.558,485.294z
		 M426.086,504.909c-2.395-0.198-5.157,3.396-6.291-1.415c2.216,0,4.161,0,6.171,0c0.398-2.959-1.075-4.761-3.468-4.695
		c-1.559,0.043-3.672,1.447-4.459,2.846c-1.157,2.056-0.431,4.421,1.975,5.525C422.414,508.272,424.496,507.736,426.086,504.909z
		 M381.508,486.466c-2.76-5.731-2.76-5.731-4.325-5.56c3.026,9.116,3.026,9.116,0.682,11.514c3.359,0.737,7.142-5.525,7.198-11.918
		c-0.291-0.142-0.582-0.283-0.873-0.424C383.332,482.122,382.473,484.166,381.508,486.466z M483.395,484.964
		c0.016-2.692-1.9-4.649-4.592-4.554c-2.734,0.099-4.279,1.585-4.457,4.321c-0.176,2.71,1.701,4.673,4.395,4.732
		C481.454,489.525,483.379,487.664,483.395,484.964z M412.004,503.141c0.005-2.693-1.918-4.639-4.613-4.531
		c-2.734,0.108-4.27,1.605-4.438,4.34c-0.164,2.709,1.723,4.664,4.418,4.713C410.083,507.712,411.998,505.843,412.004,503.141z
		 M370.949,508.686c1.02-1.332,1.664-1.801,1.742-2.35c0.178-1.25-0.176-2.615,0.173-3.79c0.269-0.903,1.28-1.586,1.962-2.366
		c0.516,0.762,1.263,1.459,1.489,2.298c0.263,0.974-0.046,2.087,0.11,3.106c0.118,0.769,0.58,1.484,0.888,2.224
		c0.408-0.095,0.815-0.188,1.224-0.282c-0.208-2.551,0.379-5.657-0.885-7.473c-0.959-1.377-4.277-1.113-6.703-1.611
		C370.949,501.695,370.949,504.623,370.949,508.686z M421.73,490.238c0.723-1.125,1.289-1.632,1.363-2.201
		c0.162-1.256-0.19-2.627,0.176-3.789c0.277-0.881,1.342-1.514,2.056-2.256c0.481,0.791,1.217,1.534,1.387,2.389
		c0.243,1.227-0.04,2.553,0.141,3.802c0.079,0.54,0.756,0.994,1.161,1.486c0.32-0.12,0.641-0.241,0.961-0.36
		c-0.242-2.574,0.303-5.697-0.986-7.537c-0.951-1.359-4.293-1.045-6.854-1.529c0,2.904-0.016,5.441,0.017,7.978
		C421.154,488.621,421.37,489.02,421.73,490.238z M411.574,489.365c0.228,0.096,0.456,0.193,0.684,0.289
		c0.361-0.523,0.959-1.015,1.033-1.576c0.168-1.254-0.184-2.622,0.175-3.789c0.274-0.891,1.317-1.543,2.018-2.301
		c0.496,0.779,1.253,1.506,1.427,2.352c0.25,1.224-0.035,2.551,0.139,3.802c0.076,0.548,0.723,1.019,1.111,1.522
		c0.33-0.115,0.66-0.23,0.991-0.348c-0.226-2.564,0.341-5.684-0.938-7.51c-0.959-1.368-4.295-1.07-6.639-1.527
		C411.574,483.514,411.574,486.439,411.574,489.365z M359.506,503.017c-0.062-2.685-2.035-4.574-4.732-4.403
		c-2.744,0.174-4.215,1.734-4.317,4.461c-0.102,2.705,1.841,4.607,4.546,4.591C357.708,507.648,359.568,505.729,359.506,503.017z
		 M316.809,503.297c0.088-2.701-1.768-4.713-4.452-4.688c-2.727,0.025-4.333,1.447-4.585,4.186
		c-0.249,2.707,1.576,4.729,4.255,4.861C314.746,507.788,316.721,505.988,316.809,503.297z M368.38,498.701
		c-0.268-0.093-0.536-0.187-0.804-0.279c-0.327,0.631-0.854,1.236-0.939,1.898c-0.164,1.264,0.167,2.631-0.18,3.815
		c-0.227,0.774-1.287,1.304-1.974,1.941c-0.501-0.669-1.306-1.283-1.437-2.019c-0.243-1.357,0.02-2.801-0.16-4.178
		c-0.07-0.539-0.762-0.996-1.443-1.82c-1.595,8.541-0.843,9.441,6.937,9.186C368.38,504.392,368.38,501.546,368.38,498.701z
		 M496.515,487.825c2.021-2.542,3.716-4.671,5.634-7.082c-3.302,0-5.717,0-8.132,0c-0.018,0.276-0.034,0.552-0.052,0.829
		c1.35,0.166,2.701,0.333,4.418,0.545c-1.692,2.406-3.22,4.575-4.865,6.914c3.094,0,5.549,0,8.004,0
		c-0.002-0.285-0.005-0.57-0.008-0.855C500.072,488.074,498.631,487.974,496.515,487.825z M484.333,489.126c3.227,0,5.646,0,8.063,0
		c0.018-0.275,0.036-0.551,0.054-0.827c-1.542-0.189-3.083-0.38-4.96-0.611c1.969-2.439,3.646-4.516,5.544-6.866
		c-3.232,0-5.694,0-8.155,0c-0.002,0.248-0.004,0.496-0.006,0.745c1.369,0.187,2.738,0.373,4.41,0.602
		C487.582,484.558,486.088,486.66,484.333,489.126z M435.857,501.479c-1.082-2.869-3.115-3.271-5.332-2.668
		c-2.518,0.687-3.369,2.724-3.02,5.168c0.344,2.402,1.896,3.648,4.314,3.668c2.188,0.018,3.416-1.104,3.938-2.824
		c-2.109,0.17-3.883,0.469-5.605,0.285c-0.27-0.028-0.785-2.467-0.361-3.426C431.311,498.25,433.584,501.736,435.857,501.479z
		 M391.888,484.566c-0.244,3.232,0.803,4.927,3.073,4.744c1.495-0.121,3.898-1.398,4.119-2.51c0.582-2.934,0.197-6.06,0.197-9.108
		c-0.32-0.087-0.641-0.173-0.962-0.26c-0.308,0.642-0.845,1.27-0.883,1.926c-0.122,2.077,0.053,4.175-0.12,6.243
		c-0.064,0.773-0.771,1.493-1.186,2.236c-0.775-0.479-1.578-0.918-2.314-1.451C393.305,486.021,392.891,485.525,391.888,484.566z
		 M336.745,477.693c-0.844,1.312-1.519,2.36-2.192,3.408c0.855,1.788,1.061,3.693,1.242,5.602c0.26,2.732,1.24,3.219,3.991,1.963
		c-2.769-2.104-2.77-5.261-0.286-7.554C338.641,480.047,337.826,479.036,336.745,477.693z M437.365,499.351
		c0.241-0.022,0.482-0.044,0.725-0.067c0.197,1.79,0.441,3.576,0.582,5.37c0.226,2.896,0.791,3.267,3.982,2.456
		c-2.779-2.58-2.758-5.914-0.078-7.745c-0.922-1.044-1.848-2.092-2.941-3.329C438.861,497.164,438.113,498.258,437.365,499.351z
		 M515.223,477.693c-0.844,1.312-1.518,2.36-2.193,3.408c0.855,1.788,1.062,3.693,1.242,5.602c0.26,2.732,1.24,3.219,3.992,1.963
		c-2.768-2.104-2.77-5.261-0.286-7.554C517.118,480.047,516.305,479.036,515.223,477.693z M520.551,480.286
		c0.294,2.464,0.576,4.247,0.704,6.042c0.22,3.057,1.097,3.604,4.009,2.368c-2.788-2.161-2.78-5.353-0.238-7.595
		c-0.93-1.096-1.816-2.14-2.835-3.34C521.391,478.994,520.717,480.031,520.551,480.286z M439.665,477.738
		c-2.97-1.375-2.692,2.531-3.856,2.99c0.495,3.189,0.938,6.035,1.381,8.881c0.352-0.074,0.703-0.148,1.055-0.223
		C438.7,485.651,439.156,481.916,439.665,477.738z M297.941,507.807c0.328-0.082,0.656-0.164,0.984-0.246
		c0.509-3.825,1.018-7.65,1.541-11.584c-3.078-1.387-2.775,2.51-3.958,2.984C297.023,502.139,297.482,504.973,297.941,507.807z
		 M413.582,511.611c0.91-1.127,2.236-2.038,2.453-3.164c0.922-4.79,0.046-9.11-1.666-9.63
		C414.128,502.737,413.888,506.643,413.582,511.611z M451.426,489.351c0.409,0.067,0.818,0.134,1.227,0.199
		c0.204-1.509,0.147-3.118,0.682-4.498c0.594-1.53,1.728-2.853,2.671-4.337c-1.345,0-2.98,0-4.579,0
		C451.426,483.646,451.426,486.498,451.426,489.351z M397.465,507.931c2.949-1.185,1.257-3.437,1.958-4.826
		c0.747-1.481,1.853-2.78,2.827-4.197c-1.474,0-3.07,0-4.785,0C397.465,501.682,397.465,504.551,397.465,507.931z M308.628,489.344
		c0.4,0.07,0.8,0.141,1.2,0.212c0.217-1.499,0.167-3.108,0.723-4.468c0.646-1.578,1.825-2.938,2.76-4.373c-1.542,0-3.123,0-4.683,0
		C308.628,483.619,308.628,486.481,308.628,489.344z M302.371,498.908c0,2.802,0,5.725,0,9.098c2.756-1.197,1.207-3.424,1.862-4.812
		c0.708-1.504,1.78-2.834,2.723-4.285C305.641,498.908,304.065,498.908,302.371,498.908z M431.857,480.201c0,3.318,0,6.237,0,9.289
		C434.28,488.131,434.38,482.072,431.857,480.201z"/>
	<path fill-rule="evenodd" clip-rule="evenodd" d="M507.838,335.619c-18.26-13.605-35.259-28.088-51.301-44.092
		c2.484-2.913,4.834-5.631,7.144-8.381c35.106-41.813,71.241-82.676,110.886-120.307c25.801-24.49,51.846-48.705,80.786-69.531
		c5.085-3.66,10.642-6.676,16.05-9.869c1.38-0.814,2.993-1.318,4.562-1.707c3.124-0.775,4.945,0.598,4.518,3.774
		c-0.415,3.084-1.196,6.191-2.316,9.096c-6.824,17.696-16.557,33.885-26.49,49.922c-33.636,54.304-71.464,105.55-112.888,154.163
		c-9.829,11.535-19.431,23.264-29.142,34.9C509.135,334.202,508.584,334.783,507.838,335.619z"/>
	<path fill-rule="evenodd" clip-rule="evenodd" d="M331.115,432.205c6.678-2.238,14.307-4.057,21.274-7.298
		c11.935-5.554,16.649-16.323,18.347-28.711c1.266-9.231,2.005-18.558,3.766-27.689c3.309-17.155,14.429-27.688,30.328-33.66
		c3.696-1.39,7.51-2.516,11.346-3.454c1.076-0.264,2.728,0.214,3.6,0.956c17.205,14.665,34.354,29.396,51.43,44.21
		c0.953,0.827,1.67,2.495,1.668,3.77c-0.041,22.689-11.506,37.972-31.415,47.458c-17.108,8.151-35.508,10.187-54.151,10.377
		c-18.476,0.188-36.743-2.111-54.869-5.579C331.658,432.436,330.906,432.143,331.115,432.205z"/>
	<path fill-rule="evenodd" clip-rule="evenodd" d="M429.979,323.561c6.639-8.156,12.58-15.457,18.269-22.449
		c17.267,14.817,34.362,29.487,51.616,44.294c-5.891,6.735-12.088,13.821-18.947,21.663
		C463.918,352.55,447.143,338.222,429.979,323.561z"/>
	<path display="none" fill-rule="evenodd" clip-rule="evenodd" d="M338.758,495.596c4.281,1.075,4.329,5.629,7.209,7.787
		c1.033-2.408-0.632-5.472,1.011-7.682c0.345,0.057,0.688,0.113,1.032,0.168c0,3.85,0,7.697,0,11.867
		c-4.373-0.668-4.11-5.729-7.144-7.586c-0.29,2.559-0.574,5.077-0.859,7.596c-0.416-0.064-0.833-0.127-1.249-0.191
		C338.758,503.774,338.758,499.993,338.758,495.596z"/>
	<path display="none" fill-rule="evenodd" clip-rule="evenodd" d="M323.827,507.565c0-1.575,0.183-3.183-0.067-4.718
		c-0.153-0.945-0.967-1.783-1.482-2.668c-0.668,0.92-1.601,1.754-1.931,2.781c-0.34,1.061,0.008,2.324-0.152,3.469
		c-0.068,0.49-0.662,0.907-1.62,2.124c0-3.857,0-6.763,0-9.94c3.077,0,6.277-0.004,9.478,0.006c0.463,0.002,1.138-0.111,1.35,0.139
		c0.767,0.902,1.843,1.891,1.944,2.93c0.195,1.99-0.199,4.037-0.348,6.061c-0.525-0.053-1.051-0.107-1.576-0.16
		c0-1.678,0.162-3.379-0.067-5.025c-0.118-0.845-0.933-1.592-1.434-2.383c-0.679,0.756-1.696,1.412-1.952,2.291
		c-0.346,1.186,0.002,2.557-0.168,3.818c-0.075,0.561-0.688,1.048-1.057,1.57C324.438,507.761,324.133,507.663,323.827,507.565z"/>
	<path display="none" fill-rule="evenodd" clip-rule="evenodd" d="M329.831,482.1c-1.753,0.301-3.507,0.601-5.496,0.941
		c0.954-2.805,3.034-2.801,5.089-2.548c2.099,0.259,2.808,1.67,2.771,3.712c-0.026,1.57,0.248,3.146,0.402,4.881
		c-1.902,0.113-4.003,0.492-6.029,0.248c-0.968-0.117-1.794-1.416-2.686-2.18c0.752-0.869,1.35-2.028,2.295-2.532
		c1.129-0.603,2.557-0.645,3.855-0.929C329.965,483.162,329.898,482.631,329.831,482.1z"/>
	<path display="none" fill-rule="evenodd" clip-rule="evenodd" d="M368.373,477.455c0.422,1.053,0.845,2.104,1.195,2.977
		c1.638,0.271,3.484,0.219,4.94,0.949c0.882,0.443,1.507,2.059,1.631,3.213c0.239,2.24-0.596,4.286-3.058,4.733
		c-1.824,0.332-3.756,0.065-5.732,0.065c0-3.949,0-7.742,0-11.537C367.69,477.722,368.031,477.588,368.373,477.455z
		 M375.274,485.404c-1.527-1.548-2.463-2.496-3.397-3.443c-0.861,0.875-2.439,1.779-2.406,2.619
		c0.047,1.133,1.129,2.582,2.174,3.161C372.13,488.01,373.575,486.545,375.274,485.404z"/>
	<path display="none" fill-rule="evenodd" clip-rule="evenodd" d="M357.732,481.079c0.396-1.264,0.764-2.438,1.131-3.614
		c0.333,0.082,0.666,0.164,0.998,0.246c0,3.84,0,7.68,0,11.604c-1.145,0-2.363,0.214-3.469-0.051
		c-1.562-0.375-3.855-0.715-4.357-1.771c-0.717-1.511-0.699-4.032,0.156-5.405c0.622-0.996,3.105-0.848,4.767-1.164
		C357.242,480.869,357.57,481.043,357.732,481.079z M359.215,484.941c-1.581-1.375-2.51-2.184-3.438-2.99
		c-0.864,1.004-2.287,1.941-2.416,3.03c-0.105,0.88,1.352,1.944,2.115,2.927C356.505,487.092,357.533,486.276,359.215,484.941z"/>
	<path display="none" fill-rule="evenodd" clip-rule="evenodd" d="M307.203,481.57c-3.335-0.729-6.133-4.91-8.755-0.462
		c-1.903,3.229,0.693,7.731,3.873,6.662c1.5-0.504,2.677-1.966,4.614-3.468c-0.384,3.857-2.293,4.949-4.901,5.139
		c-2.982,0.219-5.478-1.748-6.082-4.621c-0.61-2.898,0.868-5.721,3.56-6.797C302.477,476.84,304.972,477.779,307.203,481.57z"/>
	<path display="none" fill-rule="evenodd" clip-rule="evenodd" d="M472.779,481.496c-3.03-0.59-6.201-5.082-8.47-0.123
		c-0.637,1.392-0.403,3.969,0.522,5.143c3.069,3.898,5.082-0.545,7.612-1.944c-0.24,3.363-1.609,4.72-4.434,4.888
		c-3.118,0.186-5.718-1.854-6.225-4.885c-0.511-3.053,1.26-5.938,4.158-6.775C468.885,476.949,471.267,478.091,472.779,481.496z"/>
	<path display="none" fill-rule="evenodd" clip-rule="evenodd" d="M388.529,503.016c-0.381,1.852-0.68,3.304-0.979,4.755
		c-0.366-0.06-0.732-0.119-1.098-0.179c0-3.795,0-7.591,0-11.408c5.863-1.11,9.219-0.236,9.262,2.71
		C395.791,504.072,391.432,502.462,388.529,503.016z M388.32,501.891c2.045-0.619,3.641-1.004,5.119-1.651
		c0.23-0.101,0.131-1.957-0.152-2.058c-1.512-0.539-3.131-0.777-4.967-1.174C388.32,498.773,388.32,499.882,388.32,501.891z"/>
	<path display="none" fill-rule="evenodd" clip-rule="evenodd" d="M535.322,485.432c-2.326,0-4.24,0-6.407,0
		c1.341,4.605,4.079,1.067,6.358,1.15c-1.522,2.908-3.799,3.755-5.85,2.34c-1.355-0.935-2.365-3.35-2.33-5.078
		c0.045-2.244,2.002-3.653,4.432-3.393C534.088,480.726,535.314,482.342,535.322,485.432z"/>
	<path display="none" fill-rule="evenodd" clip-rule="evenodd" d="M511.332,486.87c-1.375,2.601-3.635,3.462-5.677,2.065
		c-1.361-0.93-2.387-3.334-2.364-5.062c0.027-2.247,1.979-3.681,4.406-3.422c2.525,0.271,3.877,1.8,3.761,4.771
		c-2.068,0.092-4.075,0.18-6.146,0.27C506.174,487.607,506.174,487.607,511.332,486.87z"/>
	<path display="none" fill-rule="evenodd" clip-rule="evenodd" d="M449.814,485.221c-2.051,0.1-4.061,0.197-6.168,0.301
		c0.9,1.867,0.9,1.867,6.063,1.42c-1.356,2.586-3.665,3.4-5.724,1.957c-1.344-0.943-2.318-3.377-2.266-5.105
		c0.068-2.252,2.051-3.65,4.469-3.332C448.688,480.791,450.075,482.301,449.814,485.221z"/>
	<path display="none" fill-rule="evenodd" clip-rule="evenodd" d="M410.05,485.344c-2.242,0-4.177,0-6.378,0
		c1.203,4.766,3.991,1.039,6.331,1.447c-1.414,2.451-3.245,3.143-5.524,2.443c-2.343-0.721-3.223-2.61-2.874-4.918
		c0.375-2.483,1.911-4.047,4.51-3.867C408.662,480.623,409.984,482.201,410.05,485.344z"/>
	<path display="none" fill-rule="evenodd" clip-rule="evenodd" d="M350,486.317c-1.772,3.215-4.098,4.042-6.166,2.55
		c-1.327-0.959-2.256-3.412-2.179-5.143c0.101-2.262,2.115-3.621,4.521-3.254c2.457,0.376,3.885,1.857,3.509,4.818
		c-2.001,0-3.945,0-6.21,0C344.689,489.902,347.32,486.83,350,486.317z"/>
	<path display="none" fill-rule="evenodd" clip-rule="evenodd" d="M322.558,485.294c-2.182,0-4.128,0-6.35,0
		c1.138,4.802,3.893,1.229,6.341,1.415c-1.429,2.504-3.223,3.225-5.487,2.543c-2.523-0.758-3.382-2.775-2.9-5.203
		c0.49-2.465,2.149-3.919,4.732-3.58C321.428,480.799,322.584,482.474,322.558,485.294z"/>
	<path display="none" fill-rule="evenodd" clip-rule="evenodd" d="M426.086,504.909c-1.59,2.827-3.672,3.363-6.072,2.261
		c-2.405-1.104-3.132-3.47-1.975-5.525c0.787-1.398,2.9-2.803,4.459-2.846c2.393-0.065,3.866,1.736,3.468,4.695
		c-2.01,0-3.955,0-6.171,0C420.929,508.305,423.691,504.711,426.086,504.909z"/>
	<path display="none" fill-rule="evenodd" clip-rule="evenodd" d="M381.508,486.466c0.965-2.3,1.824-4.344,2.682-6.388
		c0.291,0.141,0.582,0.282,0.873,0.424c-0.057,6.393-3.839,12.655-7.198,11.918c2.345-2.397,2.345-2.397-0.682-11.514
		C378.748,480.734,378.748,480.734,381.508,486.466z"/>
	<path display="none" fill-rule="evenodd" clip-rule="evenodd" d="M483.395,484.964c-0.016,2.7-1.94,4.562-4.654,4.5
		c-2.693-0.06-4.57-2.022-4.395-4.732c0.178-2.736,1.723-4.223,4.457-4.321C481.494,480.314,483.41,482.271,483.395,484.964z
		 M478.301,488.295c0.421-0.011,0.842-0.021,1.264-0.031c0.592-1.182,1.709-2.407,1.615-3.531c-0.082-0.988-1.521-1.865-2.36-2.79
		c-0.813,1.067-2.126,2.067-2.282,3.225C476.408,486.112,477.66,487.245,478.301,488.295z"/>
	<path display="none" fill-rule="evenodd" clip-rule="evenodd" d="M412.004,503.141c-0.006,2.702-1.921,4.571-4.633,4.521
		c-2.695-0.049-4.582-2.004-4.418-4.713c0.168-2.734,1.703-4.231,4.438-4.34C410.086,498.502,412.009,500.447,412.004,503.141z
		 M406.909,506.492c0.422-0.01,0.843-0.021,1.265-0.032c0.591-1.181,1.709-2.405,1.615-3.529c-0.083-0.989-1.521-1.866-2.36-2.79
		c-0.813,1.066-2.126,2.066-2.283,3.225C405.018,504.311,406.27,505.443,406.909,506.492z"/>
	<path display="none" fill-rule="evenodd" clip-rule="evenodd" d="M370.949,508.686c0-4.062,0-6.99,0-10.244
		c2.426,0.498,5.744,0.234,6.703,1.611c1.264,1.815,0.677,4.922,0.885,7.473c-0.408,0.094-0.815,0.188-1.224,0.282
		c-0.308-0.739-0.77-1.455-0.888-2.224c-0.156-1.02,0.152-2.133-0.11-3.106c-0.227-0.839-0.974-1.536-1.489-2.298
		c-0.682,0.78-1.693,1.463-1.962,2.366c-0.349,1.175,0.005,2.54-0.173,3.79C372.613,506.885,371.969,507.354,370.949,508.686z"/>
	<path display="none" fill-rule="evenodd" clip-rule="evenodd" d="M421.73,490.238c-0.36-1.219-0.576-1.617-0.58-2.019
		c-0.032-2.536-0.017-5.073-0.017-7.978c2.562,0.484,5.903,0.17,6.854,1.529c1.289,1.84,0.744,4.963,0.986,7.537
		c-0.32,0.119-0.641,0.24-0.961,0.36c-0.405-0.492-1.082-0.946-1.161-1.486c-0.181-1.249,0.103-2.575-0.141-3.802
		c-0.17-0.854-0.905-1.598-1.387-2.389c-0.714,0.742-1.778,1.375-2.056,2.256c-0.366,1.162-0.014,2.533-0.176,3.789
		C423.02,488.606,422.453,489.113,421.73,490.238z"/>
	<path display="none" fill-rule="evenodd" clip-rule="evenodd" d="M411.574,489.365c0-2.926,0-5.852,0-9.086
		c2.344,0.457,5.68,0.159,6.639,1.527c1.279,1.826,0.713,4.945,0.938,7.51c-0.331,0.117-0.661,0.232-0.991,0.348
		c-0.389-0.504-1.035-0.975-1.111-1.522c-0.174-1.251,0.111-2.578-0.139-3.802c-0.174-0.846-0.931-1.572-1.427-2.352
		c-0.7,0.758-1.743,1.41-2.018,2.301c-0.358,1.167-0.007,2.535-0.175,3.789c-0.074,0.562-0.672,1.053-1.033,1.576
		C412.03,489.559,411.802,489.461,411.574,489.365z"/>
	<path display="none" fill-rule="evenodd" clip-rule="evenodd" d="M359.506,503.017c0.062,2.713-1.798,4.632-4.504,4.648
		c-2.705,0.017-4.647-1.886-4.546-4.591c0.103-2.727,1.573-4.287,4.317-4.461C357.471,498.442,359.444,500.332,359.506,503.017z
		 M358.6,503.038c-1.648-1.34-2.932-2.939-3.489-2.718c-1.088,0.434-2.333,1.831-2.44,2.934c-0.084,0.875,1.507,2.735,2.221,2.67
		C355.967,505.827,356.926,504.435,358.6,503.038z"/>
	<path display="none" fill-rule="evenodd" clip-rule="evenodd" d="M316.809,503.297c-0.088,2.691-2.063,4.491-4.781,4.359
		c-2.68-0.132-4.504-2.154-4.255-4.861c0.251-2.738,1.858-4.16,4.585-4.186C315.042,498.584,316.897,500.596,316.809,503.297z
		 M311.449,506.416c0.421,0.031,0.843,0.062,1.264,0.094c0.68-1.016,1.979-2.096,1.883-3.031c-0.119-1.17-1.387-2.221-2.159-3.322
		c-0.876,0.881-2.358,1.69-2.472,2.66C309.833,503.943,310.902,505.211,311.449,506.416z"/>
	<path display="none" fill-rule="evenodd" clip-rule="evenodd" d="M368.38,498.701c0,2.845,0,5.69,0,8.545
		c-7.779,0.256-8.531-0.645-6.937-9.186c0.682,0.824,1.373,1.281,1.443,1.82c0.18,1.377-0.083,2.82,0.16,4.178
		c0.131,0.735,0.936,1.35,1.437,2.019c0.687-0.638,1.747-1.167,1.974-1.941c0.347-1.185,0.016-2.552,0.18-3.815
		c0.086-0.662,0.612-1.268,0.939-1.898C367.844,498.515,368.112,498.608,368.38,498.701z"/>
	<path display="none" fill-rule="evenodd" clip-rule="evenodd" d="M496.515,487.825c2.116,0.148,3.558,0.249,4.999,0.351
		c0.003,0.285,0.006,0.57,0.008,0.855c-2.455,0-4.91,0-8.004,0c1.646-2.339,3.173-4.508,4.865-6.914
		c-1.717-0.212-3.068-0.379-4.418-0.545c0.018-0.277,0.034-0.553,0.052-0.829c2.415,0,4.83,0,8.132,0
		C500.23,483.154,498.536,485.283,496.515,487.825z"/>
	<path display="none" fill-rule="evenodd" clip-rule="evenodd" d="M484.333,489.126c1.755-2.466,3.249-4.568,4.95-6.958
		c-1.672-0.229-3.041-0.415-4.41-0.602c0.002-0.249,0.004-0.497,0.006-0.745c2.461,0,4.923,0,8.155,0
		c-1.897,2.351-3.575,4.427-5.544,6.866c1.877,0.231,3.418,0.422,4.96,0.611c-0.018,0.276-0.036,0.552-0.054,0.827
		C489.979,489.126,487.56,489.126,484.333,489.126z"/>
	<path display="none" fill-rule="evenodd" clip-rule="evenodd" d="M435.857,501.479c-2.273,0.258-4.547-3.229-6.066,0.203
		c-0.424,0.959,0.092,3.397,0.361,3.426c1.723,0.184,3.496-0.115,5.605-0.285c-0.521,1.72-1.75,2.842-3.938,2.824
		c-2.418-0.02-3.971-1.266-4.314-3.668c-0.35-2.444,0.502-4.481,3.02-5.168C432.742,498.207,434.775,498.609,435.857,501.479z"/>
	<path display="none" fill-rule="evenodd" clip-rule="evenodd" d="M391.888,484.566c1.003,0.959,1.417,1.454,1.925,1.82
		c0.736,0.533,1.539,0.973,2.314,1.451c0.414-0.743,1.121-1.463,1.186-2.236c0.173-2.068-0.002-4.166,0.12-6.243
		c0.038-0.656,0.575-1.284,0.883-1.926c0.321,0.087,0.642,0.173,0.962,0.26c0,3.049,0.385,6.175-0.197,9.108
		c-0.221,1.111-2.624,2.389-4.119,2.51C392.69,489.493,391.644,487.799,391.888,484.566z"/>
	<path display="none" fill-rule="evenodd" clip-rule="evenodd" d="M336.745,477.693c1.081,1.343,1.896,2.354,2.755,3.419
		c-2.483,2.293-2.482,5.449,0.286,7.554c-2.751,1.256-3.731,0.77-3.991-1.963c-0.182-1.908-0.387-3.813-1.242-5.602
		C335.227,480.054,335.901,479.005,336.745,477.693z"/>
	<path display="none" fill-rule="evenodd" clip-rule="evenodd" d="M437.365,499.351c0.748-1.093,1.496-2.187,2.27-3.315
		c1.094,1.237,2.02,2.285,2.941,3.329c-2.68,1.831-2.701,5.165,0.078,7.745c-3.191,0.811-3.757,0.44-3.982-2.456
		c-0.141-1.794-0.385-3.58-0.582-5.37C437.848,499.307,437.606,499.328,437.365,499.351z"/>
	<path display="none" fill-rule="evenodd" clip-rule="evenodd" d="M515.223,477.693c1.082,1.343,1.896,2.354,2.755,3.419
		c-2.483,2.293-2.481,5.449,0.286,7.554c-2.752,1.256-3.732,0.77-3.992-1.963c-0.181-1.908-0.387-3.813-1.242-5.602
		C513.705,480.054,514.379,479.005,515.223,477.693z"/>
	<path display="none" fill-rule="evenodd" clip-rule="evenodd" d="M520.551,480.286c0.166-0.255,0.84-1.292,1.64-2.524
		c1.019,1.2,1.905,2.244,2.835,3.34c-2.542,2.242-2.55,5.434,0.238,7.595c-2.912,1.236-3.789,0.688-4.009-2.368
		C521.127,484.533,520.845,482.75,520.551,480.286z"/>
	<path display="none" fill-rule="evenodd" clip-rule="evenodd" d="M439.665,477.738c-0.509,4.178-0.965,7.913-1.421,11.648
		c-0.352,0.074-0.703,0.148-1.055,0.223c-0.443-2.846-0.886-5.691-1.381-8.881C436.973,480.27,436.695,476.363,439.665,477.738z"/>
	<path display="none" fill-rule="evenodd" clip-rule="evenodd" d="M297.941,507.807c-0.459-2.834-0.918-5.668-1.433-8.846
		c1.184-0.475,0.881-4.371,3.958-2.984c-0.523,3.934-1.032,7.759-1.541,11.584C298.597,507.643,298.269,507.725,297.941,507.807z"/>
	<path display="none" fill-rule="evenodd" clip-rule="evenodd" d="M413.582,511.611c0.306-4.969,0.546-8.874,0.787-12.794
		c1.712,0.52,2.588,4.84,1.666,9.63C415.818,509.573,414.492,510.484,413.582,511.611z"/>
	<path display="none" fill-rule="evenodd" clip-rule="evenodd" d="M451.426,489.351c0-2.853,0-5.704,0-8.636
		c1.599,0,3.234,0,4.579,0c-0.943,1.484-2.077,2.807-2.671,4.337c-0.534,1.38-0.478,2.989-0.682,4.498
		C452.244,489.484,451.835,489.418,451.426,489.351z"/>
	<path display="none" fill-rule="evenodd" clip-rule="evenodd" d="M397.465,507.931c0-3.38,0-6.249,0-9.023c1.715,0,3.312,0,4.785,0
		c-0.975,1.417-2.08,2.716-2.827,4.197C398.722,504.494,400.414,506.746,397.465,507.931z"/>
	<path display="none" fill-rule="evenodd" clip-rule="evenodd" d="M308.628,489.344c0-2.862,0-5.725,0-8.629c1.56,0,3.141,0,4.683,0
		c-0.935,1.436-2.114,2.795-2.76,4.373c-0.557,1.359-0.506,2.969-0.723,4.468C309.428,489.484,309.028,489.414,308.628,489.344z"/>
	<path display="none" fill-rule="evenodd" clip-rule="evenodd" d="M302.371,498.908c1.695,0,3.27,0,4.584,0
		c-0.943,1.451-2.015,2.781-2.723,4.285c-0.655,1.389,0.895,3.615-1.862,4.812C302.371,504.633,302.371,501.71,302.371,498.908z"/>
	<path display="none" fill-rule="evenodd" clip-rule="evenodd" d="M431.857,480.201c2.522,1.871,2.423,7.93,0,9.289
		C431.857,486.438,431.857,483.52,431.857,480.201z"/>
	<path display="none" fill-rule="evenodd" clip-rule="evenodd" fill="#FFFFFF" d="M375.274,485.404
		c-1.699,1.141-3.145,2.605-3.63,2.337c-1.045-0.579-2.127-2.028-2.174-3.161c-0.033-0.84,1.545-1.744,2.406-2.619
		C372.812,482.908,373.747,483.856,375.274,485.404z"/>
	<path display="none" fill-rule="evenodd" clip-rule="evenodd" fill="#FFFFFF" d="M359.215,484.941
		c-1.682,1.335-2.71,2.15-3.738,2.967c-0.764-0.982-2.221-2.047-2.115-2.927c0.129-1.089,1.552-2.026,2.416-3.03
		C356.705,482.758,357.634,483.566,359.215,484.941z"/>
	<path display="none" fill-rule="evenodd" clip-rule="evenodd" fill="#FFFFFF" d="M388.32,501.891c0-2.009,0-3.117,0-4.883
		c1.836,0.396,3.455,0.635,4.967,1.174c0.283,0.101,0.383,1.957,0.152,2.058C391.961,500.887,390.365,501.271,388.32,501.891z"/>
	<path display="none" fill-rule="evenodd" clip-rule="evenodd" fill="#FFFFFF" d="M478.301,488.295
		c-0.641-1.05-1.893-2.183-1.764-3.128c0.156-1.157,1.469-2.157,2.282-3.225c0.839,0.925,2.278,1.802,2.36,2.79
		c0.094,1.124-1.023,2.35-1.615,3.531C479.143,488.273,478.722,488.284,478.301,488.295z"/>
	<path display="none" fill-rule="evenodd" clip-rule="evenodd" fill="#FFFFFF" d="M406.909,506.492
		c-0.64-1.049-1.892-2.182-1.764-3.127c0.157-1.158,1.47-2.158,2.283-3.225c0.839,0.924,2.277,1.801,2.36,2.79
		c0.094,1.124-1.024,2.349-1.615,3.529C407.752,506.471,407.331,506.482,406.909,506.492z"/>
	<path display="none" fill-rule="evenodd" clip-rule="evenodd" fill="#FFFFFF" d="M358.6,503.038
		c-1.674,1.396-2.633,2.789-3.709,2.886c-0.714,0.065-2.305-1.795-2.221-2.67c0.107-1.103,1.353-2.5,2.44-2.934
		C355.668,500.099,356.951,501.698,358.6,503.038z"/>
	<path display="none" fill-rule="evenodd" clip-rule="evenodd" fill="#FFFFFF" d="M311.449,506.416
		c-0.547-1.205-1.616-2.473-1.484-3.6c0.113-0.97,1.595-1.779,2.472-2.66c0.772,1.102,2.04,2.152,2.159,3.322
		c0.096,0.936-1.203,2.016-1.883,3.031C312.292,506.479,311.871,506.447,311.449,506.416z"/>
</g>
</svg>
